<?xml version="1.0" encoding="UTF-8"?><svg id="Layer_2" xmlns="http://www.w3.org/2000/svg" viewBox="0 0 43.27 15.3"><defs><style>.cls-1{fill:#a56331;}.cls-2{fill:#1c1c1c;font-family:IndieFlower, 'Indie Flower';font-size:12px;}</style></defs><g id="Layer_1-2"><text class="cls-2" transform="translate(0 9.44)"><tspan x="0" y="0" xml:space="preserve">H  lidaze</tspan></text><path class="cls-1" d="m12.28,6.23s0-.1-.01-.15c-.01-.08-.03-.15-.05-.23-.05-.15-.11-.3-.18-.45-.06-.13-.15-.24-.25-.34-.06-.06-.12-.12-.18-.17-.08-.07-.17-.14-.27-.2-.15-.09-.32-.15-.5-.14-.07,0-.14,0-.21,0-.04,0-.08,0-.11,0-.1.01-.19.04-.29.07-.14.05-.26.11-.38.19-.13.09-.25.19-.36.3-.11.1-.21.2-.3.32-.07.08-.13.17-.18.27-.04.08-.07.16-.07.24,0,.08,0,.15,0,.23,0,.06,0,.12.02.18,0,.03.02.07.02.1.01.08.04.15.08.22.06.11.15.21.25.29.14.11.29.19.45.26.11.05.23.09.34.13.09.03.18.04.27.05.05,0,.09,0,.14,0,.08,0,.16,0,.24-.02.11-.02.22-.04.33-.09.09-.04.17-.08.26-.13.05-.03.1-.07.14-.11.11-.11.19-.24.25-.38.03-.07.05-.14.05-.22,0-.08,0-.16,0-.24,0-.07-.02-.15-.04-.22-.04-.12-.08-.24-.14-.35-.07-.13-.16-.24-.28-.32-.07-.05-.14-.08-.22-.11-.14-.05-.28-.08-.43-.08-.05,0-.09,0-.14,0-.04,0-.07,0-.11.01-.12.03-.22.1-.31.18-.09.08-.16.18-.22.29-.04.06-.07.12-.08.19,0,.04-.01.08-.01.12,0,.07,0,.14,0,.21.02.1.04.21.08.31.03.08.07.16.14.22.06.06.13.09.21.09.05,0,.1,0,.15,0,.06,0,.12-.02.18-.05.05-.02.1-.05.15-.08.04-.02.07-.05.1-.08.04-.04.06-.09.06-.15,0-.05,0-.1,0-.15-.01-.08-.04-.16-.08-.23-.05-.11-.14-.19-.23-.25-.04-.03-.08-.05-.13-.04-.05,0-.09.04-.09.09,0,.04.01.08.06.09,0,0,.02,0,.02.02.02.01.03.03.05.04.05.05.1.1.14.16.02.03.04.06.04.1,0,.05,0,.1,0,.15,0,.02,0,.04-.02.06-.02.02-.05.04-.08.05-.06.02-.11.03-.17.03-.05,0-.09-.02-.13-.05-.06-.04-.09-.1-.11-.17-.03-.09-.05-.18-.04-.27,0-.03,0-.05,0-.08,0-.05,0-.1.03-.15.06-.15.16-.27.3-.37.02-.01.04-.02.06-.02.04,0,.07,0,.11,0,.05,0,.11,0,.16.02.11.03.22.06.33.12.12.06.21.16.28.27.04.07.07.15.1.22.02.06.04.12.04.18,0,.07,0,.14,0,.21,0,.03,0,.06,0,.1-.02.08-.05.15-.08.23-.02.03-.03.07-.06.1-.07.08-.15.15-.24.2-.08.04-.17.07-.26.09-.05.01-.09.02-.14.02-.06,0-.12,0-.18,0-.03,0-.06,0-.1,0-.06,0-.12-.02-.18-.04-.12-.04-.24-.08-.35-.13-.13-.06-.25-.13-.36-.21-.08-.05-.15-.11-.2-.19-.03-.04-.06-.09-.08-.14-.03-.07-.03-.15-.04-.22,0-.06,0-.12,0-.18,0-.07.01-.14.04-.2.04-.1.1-.18.16-.26.09-.11.18-.21.28-.3.09-.09.19-.17.3-.25.09-.06.18-.12.28-.15.13-.04.26-.07.4-.07.04,0,.09,0,.13,0,.07,0,.14.02.21.04.13.05.24.12.35.21.1.08.19.17.29.26.08.08.14.17.19.27.05.11.1.22.14.34.04.11.06.22.06.33,0,.04,0,.08,0,.11,0,.08,0,.17-.03.25-.02.08-.04.16-.06.23-.01.06-.03.12-.05.19-.03.07-.06.14-.11.19-.03.04-.06.08-.1.11-.09.09-.18.18-.29.25-.09.06-.19.1-.29.13-.09.03-.18.04-.27.04-.07,0-.14,0-.22,0-.07,0-.15-.01-.22-.03-.11-.02-.22-.04-.34-.05-.09,0-.18,0-.26,0,0,0-.01,0-.02,0-.03,0-.07.01-.1.02-.04,0-.06.03-.06.07,0,.02,0,.05,0,.07,0,.03.02.04.04.05.06.02.12.03.18.04.12.02.25.05.37.07.06.01.13.02.19.03.07,0,.15.01.22,0,.09,0,.19,0,.28-.01.12-.01.24-.04.36-.09.07-.03.14-.07.2-.1.11-.06.22-.13.31-.22.08-.08.16-.16.23-.25.09-.11.15-.23.18-.36.02-.09.04-.18.07-.26.04-.13.05-.27.05-.41,0-.03,0-.06,0-.1Z"/><path class="cls-1" d="m9.19,7.99s-.04-.03-.06-.02c-.03.01-.06.03-.08.05,0,0-.02.02-.02.02-.09.08-.18.17-.27.25-.04.04-.07.07-.11.11,0,0-.02.02-.02.03-.02.03-.03.05-.06.07,0,0-.01.02-.01.03,0,0,0,.01,0,.02.02.02.03.04.05.06.01,0,.02.02.03.03.02.02.04.02.06,0,.03-.02.05-.05.08-.07.13-.12.25-.25.36-.39.02-.03.05-.06.07-.09.01-.02.01-.04,0-.05,0-.02-.02-.03-.03-.05Z"/><path class="cls-1" d="m11.16,8.52s0-.08-.02-.12c-.01-.02,0-.02-.03-.02-.04,0-.09.01-.13.02-.02,0-.02,0-.03.03,0,.04,0,.07,0,.11,0,.07,0,.14,0,.21h0c0,.06,0,.11,0,.17,0,.05,0,.1.02.15,0,0,0,.01.02.01.04-.01.09-.02.13-.02.04,0,.03,0,.04-.04,0,0,0-.02,0-.02,0-.04,0-.08,0-.13,0-.12,0-.24,0-.35Z"/><path class="cls-1" d="m13.57,6.21s-.03-.07-.04-.1c0,0,0-.01-.02-.01-.04,0-.08,0-.12.02-.05.01-.09.03-.14.03-.08.01-.15.02-.23.04-.05.01-.11.03-.16.05-.01,0-.02.01-.02.03,0,.02,0,.04,0,.05v.06s0,.02.02.02c.02,0,.04,0,.07,0,.06,0,.11-.01.17-.02.08,0,.15-.02.23-.04.08-.02.15-.06.23-.1.02,0,.02-.02.01-.04Z"/><path class="cls-1" d="m8.49,4.62c.06.05.13.09.2.13.05.03.1.05.15.08.05.03.09.05.14.07.02.01.03,0,.04-.01.02-.03.03-.06.06-.09,0,0,0-.01,0-.02,0-.01,0-.02-.02-.03-.07-.05-.15-.1-.22-.15-.09-.06-.19-.12-.28-.18-.01,0-.02-.01-.03-.02-.02,0-.03,0-.04,0-.01.01-.02.03-.04.04-.02.02-.03.04-.04.07,0,.02,0,.04.01.05.02.02.04.04.06.05Z"/><path class="cls-1" d="m12.76,4.52s.05-.04.06-.06c0,0,0,0,0-.01,0,0,0,0,0,0-.01-.03-.03-.07-.05-.1,0,0-.01-.01-.02-.01-.04,0-.08,0-.12.03-.1.06-.19.12-.29.18-.06.04-.12.08-.16.14,0,0-.01.02,0,.03.02.04.04.08.06.12.01.02.01.02.04.01.05-.02.08-.06.13-.08.02-.01.04-.03.07-.05.09-.06.19-.12.28-.18Z"/><path class="cls-1" d="m10.54,3.86s0,.06.01.08c0,.03,0,.03.04.03,0,0,.01,0,.02,0,.03,0,.06,0,.09,0,.02,0,.02,0,.01-.02,0,0,0-.01,0-.02,0-.03,0-.07,0-.1,0-.09,0-.19,0-.28.01-.09.03-.18.06-.26,0,0,0-.01,0-.02,0-.02,0-.02-.01-.02-.04-.01-.08-.02-.13-.03-.01,0-.02,0-.03,0,0,0-.01.02-.02.03,0,.02-.02.04-.02.06-.04.14-.06.27-.05.43,0,.03,0,.07,0,.11Z"/><path class="cls-1" d="m12.94,8.15c-.03-.05-.07-.1-.11-.15-.07-.09-.17-.17-.25-.26,0,0-.01,0-.02,0-.03.04-.07.07-.11.11-.01.01,0,.02,0,.03,0,.01.02.03.03.04.03.03.05.06.08.09.05.06.11.12.15.18.03.04.06.07.09.11.01.01.02.01.04,0,.01,0,.03-.01.04-.02.02-.01.04-.02.06-.03.01,0,.02-.02.02-.04,0,0,0,0,0-.01,0-.02-.01-.04-.02-.06Z"/><path class="cls-1" d="m8.43,6.45s.08-.02.13-.03c0,0,.01,0,.02,0,.01,0,.02-.01,0-.03-.01-.03-.02-.05-.03-.08,0-.02-.01-.02-.03-.02-.03,0-.06,0-.1,0-.03,0-.07,0-.1.02-.05.02-.11.04-.16.05-.05.01-.09.02-.14.03-.05.01-.09.03-.13.05-.01,0-.02.02-.01.04,0,.02,0,.05.01.07t.04.03s.04,0,.07,0c.12-.02.23-.05.34-.1.03-.01.06-.02.09-.03Z"/><path class="cls-1" d="m11.63,4.19s.01,0,.02,0c.03.01.05.03.08.04.02,0,.03,0,.05,0,0,0,.02-.01.03-.02.02-.02.04-.04.05-.06.02-.02.03-.04.04-.06,0-.01.01-.02.02-.03.04-.04.07-.08.1-.13.01-.02.02-.04.02-.07,0-.02,0-.03-.03-.04-.02,0-.04-.02-.06-.03,0,0-.02,0-.02,0-.03,0-.05.02-.07.04-.05.05-.09.1-.13.14-.02.02-.03.04-.05.07,0,.02-.02.03-.03.05-.01.01-.02.03-.03.04-.01.02,0,.04.01.05Z"/><path class="cls-1" d="m12.59,5.34s-.02,0-.02.01c0,0-.02.02-.03.02-.02,0-.02,0-.01.03.02.05.03.09.05.14t.03.02s.03,0,.05-.01c.1-.05.19-.11.28-.16.02-.01.02-.02.02-.04-.01-.05-.02-.09-.03-.14,0-.04,0-.04-.04-.02,0,0-.01,0-.02.01-.02.01-.05.03-.07.04-.06.04-.13.08-.19.11Z"/><path class="cls-1" d="m9.52,3.92c.03.12.09.23.18.32,0,0,.02.01.03,0,.04-.03.07-.05.11-.08t0-.03s-.04-.09-.07-.14c-.03-.04-.05-.09-.07-.13-.02-.03-.04-.06-.08-.08,0,0-.01,0-.02-.01,0,0,0,0-.01,0-.03.02-.06.04-.08.06,0,0-.01.01,0,.02,0,.02.01.04.02.06Z"/><path class="cls-1" d="m10.12,8.42s-.06-.01-.08-.02c-.02,0-.04,0-.04.02,0,.03-.02.06-.03.09-.02.09-.06.18-.09.27,0,.03,0,.04.02.05.03.01.05.02.08.03.03,0,.04,0,.05-.03,0-.01,0-.03.01-.04.04-.08.06-.16.08-.25,0-.03.01-.06.02-.09,0-.04,0-.04-.03-.04Z"/><path class="cls-1" d="m8.16,5.43s0,.03.04.04c.07,0,.14,0,.21,0,.04,0,.08,0,.12,0,.03,0,.05,0,.08,0,.02,0,.02,0,.02-.03,0-.02,0-.04,0-.07,0,0,0-.02-.01-.02-.01,0-.03-.01-.05-.02-.07-.01-.13-.02-.2-.01-.03,0-.06,0-.09,0-.03,0-.06,0-.1.02-.02.01-.03.01-.02.04,0,.02,0,.04,0,.06Z"/><path class="cls-1" d="m12.11,8.33s-.01-.02-.03,0c-.03.02-.07.04-.1.06-.03.01-.03.02-.02.04.03.07.07.14.1.2,0,.02.02.03.03.05.01.02.02.02.04.01.03-.01.05-.03.08-.04.01,0,.02,0,.03-.02,0,0,.01-.01.01-.02,0-.02,0-.04-.02-.06-.03-.08-.08-.15-.12-.23Z"/><path class="cls-1" d="m8.71,7.3s.01,0,.02-.01c0,0,0-.01,0-.02-.01-.02-.02-.03-.03-.05,0,0-.01-.01-.02-.01,0,0-.01,0-.02,0h0s-.02,0-.03,0c-.05,0-.1.03-.15.06-.05.03-.09.06-.14.09-.02.01-.04.03-.06.06,0,.01-.01.02,0,.04s.02.03.03.04c.01.02.02.02.04.01,0,0,.02,0,.02-.01.07-.02.12-.05.18-.09.05-.03.1-.07.15-.09Z"/><path class="cls-1" d="m13.18,7.15c-.05-.06-.12-.11-.19-.14-.02-.01-.05,0-.06.02-.02.03-.03.06-.05.09-.01.02-.01.03.01.05.05.03.1.07.15.11.01.01.03.02.04.02,0,0,.02,0,.02,0,.02-.03.05-.06.07-.08.02-.02.02-.02,0-.04,0,0,0,0,0,0Z"/><path class="cls-1" d="m43.27,5.41s0-.08,0-.11c0-.01,0-.02-.02-.02-.05-.02-.09-.03-.15-.04-.06,0-.11-.02-.17-.03-.09-.02-.18-.05-.28-.07-.06-.01-.13-.02-.19-.02-.02,0-.03,0-.03.02,0,.02-.01.03-.02.05l-.02.05s0,.02.01.03c.02.01.05.02.07.03.07.02.13.04.2.06.09.03.18.05.27.06.1.02.2.01.29.01.02,0,.03,0,.03-.03Z"/><path class="cls-1" d="m38.08,1.69c.06.07.12.14.18.21.05.05.1.09.14.14.04.04.09.09.13.13.02.02.03.02.05,0,.03-.02.06-.04.1-.05,0,0,.01,0,.01-.02,0,0,0-.02,0-.04-.06-.08-.13-.16-.19-.24-.08-.1-.17-.2-.26-.29,0-.01-.02-.02-.03-.03-.02-.01-.03-.02-.05,0-.02,0-.04.02-.06.02-.03,0-.05.03-.07.04-.02.01-.02.03,0,.05.02.03.03.05.05.08Z"/><path class="cls-1" d="m42.96,3.47s.07-.01.09-.03c0,0,.01,0,.01-.01,0,0,0,0,0,0,0-.04,0-.08-.02-.12,0-.01,0-.02-.02-.02-.05-.02-.09-.03-.14-.02-.13.01-.26.03-.39.05-.08,0-.16.02-.23.06-.01,0-.02,0-.02.02.01.05.02.09.03.14,0,.03,0,.03.04.03.06,0,.12-.02.17-.02.03,0,.06-.01.09-.02.13-.02.25-.03.38-.05Z"/><path class="cls-1" d="m40.68,1.88s-.01.05-.02.08c0,.03,0,.03.03.04,0,0,.02,0,.03,0,.04,0,.07.03.11.04.02,0,.02,0,.02-.01,0,0,0-.01,0-.02.02-.03.03-.06.04-.09.04-.09.06-.18.11-.26.05-.08.1-.15.17-.21,0,0,0,0,.01-.01.01-.01.01-.01,0-.03-.04-.03-.09-.06-.13-.08-.01,0-.02,0-.04,0-.01,0-.02,0-.03.02-.02.01-.03.03-.05.05-.09.11-.17.23-.22.38-.01.02-.03.06-.04.11Z"/><path class="cls-1" d="m41.79,2.66s.01.01.02.02c.02.02.05.05.07.07.02.02.03.02.05.02.01,0,.03,0,.04,0,.03-.01.05-.02.08-.03.02-.01.05-.02.07-.04,0,0,.02-.01.03-.02.06-.02.11-.04.16-.07.02-.01.04-.03.05-.05,0-.02,0-.03-.02-.05-.02-.02-.04-.03-.05-.05,0,0-.02-.01-.03-.01-.03,0-.07,0-.1,0-.07.02-.13.05-.2.08-.03.01-.05.02-.08.04-.01.01-.03.02-.05.03-.02,0-.03.02-.05.03-.02.01-.02.03,0,.05Z"/><path class="cls-1" d="m42.47,4.16s-.02,0-.03,0c-.01,0-.03,0-.04,0-.02,0-.02,0-.02.02,0,.05,0,.1,0,.15t.03.03s.04,0,.06,0c.13,0,.26-.02.38-.03.03,0,.03,0,.03-.03,0-.05,0-.1.01-.14,0-.04,0-.04-.04-.04,0,0-.02,0-.03,0-.03,0-.06,0-.09,0-.09,0-.17.02-.26.02Z"/><path class="cls-1" d="m39.5,1.49c0,.13.02.25.09.37,0,.01.01.02.03.01.05,0,.1-.01.15-.02t.02-.02c0-.05,0-.1-.03-.16-.02-.05-.02-.1-.03-.15,0-.04-.03-.08-.06-.11,0,0-.01-.01-.02-.02,0,0-.01,0-.02,0-.04,0-.08.01-.12.02-.01,0-.02,0-.02.02,0,.02,0,.04,0,.06Z"/><path class="cls-1" d="m37.4,2.31s0,.03.03.05c.08.03.16.06.24.09.05.02.09.03.13.05.03.01.06.02.09.03.02,0,.03,0,.03-.01,0-.02.01-.04.02-.06,0,0,0-.02,0-.03-.01-.02-.03-.03-.05-.04-.07-.04-.14-.07-.22-.1-.03-.01-.07-.03-.1-.04-.04-.01-.08-.03-.11-.03-.03,0-.03,0-.04.03,0,.02,0,.04-.01.06Z"/><path class="cls-1" d="m42.49,6.11c-.04-.08-.09-.15-.16-.22-.02-.02-.05-.02-.08,0-.03.02-.06.04-.09.06-.02.01-.02.03,0,.05.05.05.09.11.13.17,0,.01.02.03.04.03.01,0,.02,0,.03,0,.04-.02.08-.03.11-.05.03-.01.02-.01.02-.04,0,0,0,0,0,0Z"/></g></svg>