<?xml version="1.0" encoding="UTF-8"?><svg id="Layer_2" xmlns="http://www.w3.org/2000/svg" viewBox="0 0 7.68 7.68"><defs><style>.cls-1{fill:#445d60;}.cls-2{fill:#f4f4f4;stroke:#445d60;stroke-miterlimit:10;stroke-width:.25px;}</style></defs><g id="Layer_1-2"><circle class="cls-2" cx="3.84" cy="3.84" r="3.72"/><path class="cls-1" d="m5.4,3.98v-.09c0-.09,0-.18-.09-.18,0-.18-.09-.27-.18-.36-.09-.09-.09-.18-.27-.27q-.09-.09-.18-.18c-.09-.09-.18-.09-.27-.18-.18-.09-.27-.09-.46-.09h-.27c-.09,0-.18,0-.27.09-.09,0-.27.09-.36.18-.09.09-.27.18-.36.27s-.18.18-.27.27c-.09.09-.09.18-.18.27,0,.09-.09.18-.09.18v.46q0,.09.09.18c.09.09.09.18.27.27.09.09.27.18.36.27s.18.09.27.09h.55c.09,0,.18,0,.27-.09.09,0,.18-.09.27-.09s.09-.09.09-.09c.09-.09.18-.18.18-.36q0-.09.09-.18v-.36c0-.09-.09-.18-.09-.36-.09-.09-.18-.18-.27-.27-.09,0-.09-.09-.18-.09-.09-.09-.27-.09-.36-.09h-.18c-.09,0-.18.09-.27.18-.09.09-.18.18-.18.27s-.09.09-.09.18v.27c0,.09,0,.18.09.27,0,.09.09.18.09.18q.09.09.18.09h.36q.09,0,.09-.09s.09,0,.09-.09l.09-.09v-.18c0-.09,0-.18-.09-.18-.09-.09-.09-.18-.18-.27h-.09s-.09,0-.09.09c0,0,0,.09.09.09h0c.09,0,.09.09.09.18v.27h-.27s-.09,0-.09-.09c-.09,0-.09-.09-.09-.18v-.46c.09-.09.18-.27.27-.36h.36c.09,0,.18.09.27.09.09.09.18.18.27.27,0,.09.09.09.09.18v.46c0,.09,0,.18-.09.18,0,0,0,.09-.09.09q-.09.09-.18.18c-.09,0-.18.09-.27.09h-.55c-.09,0-.18-.09-.27-.09-.09-.09-.18-.09-.36-.18q-.09-.09-.18-.18l-.09-.09v-.55c0-.09.09-.18.18-.27s.18-.18.27-.27c.09-.09.18-.18.27-.18.09-.09.18-.09.27-.18.09,0,.27-.09.36-.09h.27c.09,0,.18.09.27.18.09.09.18.18.27.27.09.09.09.18.18.27s.09.18.09.27.09.18.09.27v.27c0,.09,0,.18-.09.18q0,.09-.09.18c0,.09-.09.09-.09.18l-.09.09c-.09.09-.18.18-.27.18-.09.09-.18.09-.27.09h-.64c-.09,0-.18,0-.27-.09h-.36s-.09,0-.09.09v.09h.18c.09,0,.18,0,.36.09h.64c.09,0,.18,0,.36-.09.09,0,.09-.09.18-.09.09-.09.18-.09.27-.18.09-.09.18-.18.18-.18.09-.09.09-.18.18-.36,0-.09,0-.18.09-.27.27.18.27,0,.27-.18,0,.09,0,0,0,0Z"/><path class="cls-1" d="m2.57,5.62q0-.09,0,0h-.09c-.09.09-.18.18-.27.27l-.09.09h0s0,.09-.09.09h0l.09.09h.09s.09,0,.09-.09c.09-.09.27-.27.36-.36l.09-.09h-.18Z"/><path class="cls-1" d="m4.4,6.08v-.09h-.09v.27h0v.36h.09v-.55Z"/><path class="cls-1" d="m6.59,3.98v-.09h-.55v.18h.46c-.09,0,0,0,.09-.09h0Z"/><path class="cls-1" d="m1.93,2.52c.09,0,.09.09.18.09l.09.09s.09,0,.09.09h0s0-.09.09-.09h0q-.09-.09-.18-.18c-.09-.09-.18-.09-.27-.18h0v.09q-.09,0,0,.09c0-.09,0,0,0,0Z"/><path class="cls-1" d="m5.86,2.43s0-.09,0,0q0-.09,0,0,0-.09,0,0c.09-.09,0-.18,0-.18h-.09c-.09.09-.18.09-.27.18-.09,0-.09.09-.18.09h0s0,.09.09.09h0l.09-.09h.09c.09,0,.18-.09.27-.09Z"/><path class="cls-1" d="m3.85,1.79q0,.09,0,0v.09h.09v-.36c0-.09,0-.18.09-.27h-.09v.09c0,.09-.09.27-.09.36v.09Z"/><path class="cls-1" d="m6.04,5.71c0-.09-.09-.09-.09-.09-.09-.09-.18-.18-.18-.27h0l-.09.09h0l.09.09q.09.09.18.18l.09.09h.09q-.09,0-.09-.09,0,.09,0,0c0,.09,0,0,0,0Z"/><path class="cls-1" d="m1.84,4.16h.09v-.09h-.18q-.09,0-.18.09h-.09s-.09,0-.09.09h0v.09h.09c.09-.09.18-.09.36-.18h0Z"/><path class="cls-1" d="m4.76,2.15q.09,0,0,0,.09,0,0,0,.09.09.09,0h0l.09-.09v-.09h0l.09-.09v-.09h-.18l-.09.09v.09q.09,0,0,.18c.09-.09,0-.09,0,0q0-.09,0,0Z"/><path class="cls-1" d="m5.67,3.16h0q-.09.09,0,0c-.09.09,0,.18,0,.18h0c.09,0,.18-.09.27-.18h0v-.09h-.09c-.09,0-.09.09-.18.09Z"/><path class="cls-1" d="m2.85,1.88c0,.09.09.18.18.27h0l.09-.09h0s0-.09-.09-.09c0,0,0-.09-.09-.09,0,0,0-.09-.09-.09h0q.09,0,0,.09,0-.09,0,0c0-.09,0,0,0,0Z"/><path class="cls-1" d="m3.39,5.98h-.09v.09c0,.09-.09.18-.09.27v.09h.18c0-.09.09-.18.09-.18q0-.18-.09-.27.09,0,0,0Z"/><path class="cls-1" d="m1.66,3.25h.46v-.09h-.27c-.09,0-.18,0-.18.09q0-.09,0,0h0Z"/><path class="cls-1" d="m5.22,5.89h0q-.09,0-.09.09h0c0,.09.09.09.09.18h.09v-.09q0-.09-.09-.18Z"/><path class="cls-1" d="m2.12,4.98h0c0-.09.09-.09,0,0q0-.09,0,0,0-.09,0,0,0-.09,0,0h0q0-.09,0,0c-.09-.09-.18-.09-.18,0l-.09.09-.09.09h0c.09,0,.09-.09.18-.09.09-.09.18-.09.18-.09Z"/><path class="cls-1" d="m6.22,4.8q-.09-.09-.18-.09h-.09s0,.09-.09.09h0c.09,0,.09.09.18.09h0q.18,0,.18-.09,0,.09,0,0h0Z"/></g></svg>