<?xml version="1.0" encoding="UTF-8"?><svg id="Layer_2" xmlns="http://www.w3.org/2000/svg" viewBox="0 0 164.5 58.03"><defs><style>.cls-1{fill:#cbd8d8;font-size:20.79px;}.cls-1,.cls-2{font-family:BowlbyOneSC-Regular, 'Bowlby One SC';}.cls-3,.cls-2{fill:#fff;}.cls-4{fill:#445d60;}.cls-2{font-size:30.93px;}</style></defs><g id="Layer_1-2"><rect class="cls-4" x="0" y="0" width="164.5" height="58.03" rx="3.31" ry="3.31"/><g id="Graphic_Elements"><path class="cls-3" d="m38.15,12.6h.01s-.01,0-.01,0Z"/><path class="cls-3" d="m40.1,16.56h0s0,0,0,0h0Z"/><path class="cls-3" d="m45.77,16.5h0,0s0,0,0,0Z"/><path class="cls-3" d="m46.16,14.22h0l-.05.08s.06.02.08.04l-.03-.11Z"/><path class="cls-3" d="m47.47,22.47h0s0,0,0,0h0Z"/><path class="cls-3" d="m48.32,21.94s0,.02,0,.03c0,0,.01.01.02.02v-.05Z"/><path class="cls-3" d="m45.58,22.11h0s0,0,0,0h0Z"/><path class="cls-3" d="m53.68,32.41h.01,0s0,0,0,0Z"/><path class="cls-3" d="m49.69,33.22h0s0,0,0,0c0,0,0,0,0,0Z"/><path class="cls-3" d="m49.63,33.41h0s0,0,0,0Z"/><path class="cls-3" d="m15.19,31.74h0s0,0,0,0h0s0,0,0,0Z"/><path class="cls-3" d="m21.84,14.39h0s0-.01,0-.01c0,0,0,0,0,.01Z"/><path class="cls-3" d="m21.69,12.47h.01v.02c.07-.04,0-.16.08-.2-.02-.01-.05-.03-.06-.05-.03.04-.04.11-.11.07v.05s-.01.02-.01.03l.09.08Z"/><polygon class="cls-3" points="33.75 27.02 33.75 26.69 33.75 26.36 33.75 24.05 33.75 22.74 33.75 21.44 33.75 21.21 29.38 29.01 33.75 29.01 33.75 27.02"/><polygon class="cls-3" points="37.41 27.02 37.23 26.69 37.04 26.36 34.38 21.6 34.16 21.21 34.16 22.45 34.16 26.36 34.16 26.69 34.16 27.02 34.16 29.01 38.53 29.01 37.41 27.02"/><polygon class="cls-3" points="33.75 31.73 33.75 29.6 29.15 29.6 28.03 31.6 27.96 31.73 28.06 31.73 33.75 31.73"/><polygon class="cls-3" points="38.76 29.6 34.16 29.6 34.16 31.73 39.99 31.73 38.76 29.6"/><path class="cls-3" d="m53.18,48.17v-3.78h-.95v3.16l-2.19-3.81,8.16-.07-2.28-7.77s-.02.04-.03.06c.02-.12-.09-.16-.02-.22l-.07-.25s-.02-.01-.03-.02h0c-.01.14.01.32-.23.2-.12.17-.28-.07-.08-.08.05-.18.15-.22.31-.11,0,0,0,0,0,0h0s.02-.01.02-.01l-.64-2.19s-.09.05-.14.05c.01.12-.18.05-.07-.05-.14-.15.07-.26.1-.41l-.08-.27s-.01,0-.02,0h0l-.08.06h0l-.13.08c.11.1-.08.19-.13.28.01.09-.02.18-.09.24.18.04.07.2-.03.27-.14-.02-.26-.09-.15-.22,0,0-.02-.02-.03-.02-.07,0-.12-.02-.12-.1h0c-.06-.03-.17,0-.15-.13-.03-.09.08-.11.09-.18-.31-.11.04-.16.02-.25-.04-.04-.07-.09-.07-.15-.05-.1.12-.14.2-.14.03-.03.06-.07.09-.11h.01c-.05-.08-.21.03-.22-.12-.07.04-.14.08-.21.13.02-.07.12-.37.17-.17.05-.07.16,0,.21-.08-.02-.16.12-.13.19-.13.13,0,.1.14.13.22.05.05-.04.09,0,.14,0,.03,0,.05.01.08.07,0,.13-.01.19-.03l-.06-.21c-.11.16-.18-.17-.02-.06l-.4-1.39c-.03.06-.12.03-.17.05h0s.03.07.04.1c.27-.12.16.32-.03.12-.07.09-.31.08-.28-.06.06-.09.13-.19.27-.17h0c-.08-.11.02-.21.13-.19l-.72-2.46s-.05-.09-.05-.17l-.14-.46c-.07.01-.14.04-.2-.02,0-.03-.01-.06-.02-.09-.12,0-.11-.11-.13-.18-.07-.08-.03-.16,0-.23-.17-.06,0-.33.09-.12.02,0,.04,0,.06,0l-.09-.32s-.41.05-.27-.11c.04-.05.04-.11.08-.16-.04-.04-.08-.08-.03-.14-.07-.09-.13-.18.01-.31,0-.03-.11-.39-.12-.42-.06.02-.08-.1-.13-.13-.01,0-.03,0-.04,0l-.44,1.41s.05-.06.08-.03c.01-.06.08-.05.12,0,.14-.12.27.14.1.18-.11.04-.08-.07-.1-.12-.03,0-.09.02-.11,0,0,.05-.09.05-.11.01l-.06.21c.14-.01.38.09.32.27-.01.07.14.06.08.14-.05.07-.07-.04-.11-.04-.23.12-.33.13-.41.02-.03.09-.08.25-.11.34.14-.04.3.02.41-.12.02-.02.06-.02.08.02.04.09-.1.08-.09.15.05.05.16.01.18.11.04.07.22.19-.06.17-.1.02-.2.17-.29.23h.01s0,.05,0,.07h.25s.05-.06.09-.06c.02-.07.08-.08.14-.08.21-.03.23-.07.41.1.06-.04.17.03.2-.09.02-.14.22-.01.14.08-.06.07-.05.15-.06.23.07.34.03.43-.21.53-.42.17-.45.17-.61-.07-.05-.02-.1.08-.15,0-.03-.12.08-.07.14-.05-.08-.14.09-.23.05-.36-.1.09-.18.08-.23-.06-.15.07-.13-.05-.15-.14-.05.01-.08.11-.15.02-.07-.04-.15-.08-.18-.17-.03,0-.06.01-.08,0-.28.89-.6,1.92-.87,2.81,0-.03.05-.04.09-.04.1,0,.23-.2.29.05l.07.06c.1,0,.05.17-.03.11-.04.03,0,.13-.11.1-.15-.04-.29-.12-.31-.27-.1.32-.54,1.76-.65,2.1.15-.05.07.19-.03.09l-.09.29s.09,0,.13.04c.15,0,.24.07.2.24.05.06.11.11.17.15.02.08-.14.09-.12,0-.11.02-.17.13-.29.11-.1.03-.19.05-.25-.03l-1.95,6.29c-.12-.2-.35-.6-.46-.81l-.78-1.35v-6.67h-.95v5.01l-3.27-5.69h7.69l.57-1.84-.98-3.51-.03.03c-.1-.02-.06-.1.01-.08l-.02-.07c-.14.07-.37.05-.26-.15-.03-.14.06-.22.14-.31l-.6-2.13s0-.06-.02-.09c-.02,0-.02-.03-.01-.05l-.18-.64c-.05.06-.17.14-.19,0-.01,0-.03,0-.04,0,.05.16-.18.2-.15.02-.02-.1-.14-.18-.04-.29.01-.13.13-.11.21-.15-.01-.07-.02-.14.02-.2l-.22-.8c-.06-.08-.17-.02-.24.02,0,.03-.01.05-.03.07.2.15-.25.25-.09.03-.22-.06-.14-.42.06-.25l.2-.1s.02,0,.03,0l-.44-1.57c-.05.09-.09.13-.16.05-.06-.07,0-.11.05-.15.01-.04.05-.06.07-.05l-.39-1.41s-.09.08-.16.05c.04-.08.1-.06.16-.05-.02-.06-.65-2.34-.69-2.49-.03,0-.06-.04-.05-.08,0-.01,0-.02.02-.03l-.09-.33s-.01-.01-.02-.02c-.01,0-.03.01-.04.02-.09.11-.23.11-.35.05,0,.03,0,.08-.05.08-.26-.02-.11-.21-.14-.33-.02-.13.11-.09.19-.12,0,0,0-.02,0-.03-.21-.1.03-.34.05-.25.06,0,.12-.02.18-.04l-.06-.22c-.09,0-.08-.11-.04-.15l-.14-.52-.68,2.31c.09.03.11.1.1.19.08.06.19.07.24.16h0c.08.08.05.14-.03.2-.09.08-.13,0-.17-.05-.09-.07-.02-.13,0-.2h-.15s-.07.04-.1.05l-.02.06c.13.04.08.36-.07.23l-.69,2.35s-.04.12-.05.17c.02.05.12.07.09.15h0,0s0,0,0,0c-.04-.01-.08-.04-.12-.07l-.15.51c.18-.02.08.32-.06.19l-.2.67c.13.03.07.22-.05.16l-2.71,9.16c-.44-.77-1.01-1.75-1.45-2.52h1.49l.42-1.42s-.04-.09,0-.13c.01-.01.03-.02.05-.03l.33-1.11-1.58-5.98c-.1.09-.11-.07-.03-.1l-.19-.72s-.02,0-.03-.02c-.01.15-.2.09-.11-.03-.04-.11-.11-.19-.08-.31l-.26-.24c-.04-.22.03-.38.2-.45l-.22-.83s-.06,0-.09,0c-.09.12-.23.07-.35.09l.05-.24s-.11-.02-.09-.06c.04-.12.11.07.16,0-.05-.03-.07-.1-.04-.15-.2-.16.11-.34.12-.2.06.04.12.08.05.16.01.04.02.09.07.11,0-.02.03-.02.04-.02l-.5-1.91c-.13.05-.13-.14-.05-.19l-.09-.35c-.04.06-.13.04-.17.01-.05-.03-.03-.09,0-.13.05-.07.1-.01.15.03l-.11-.43c-.09,0-.1-.11-.04-.14l-.18-.67s-.04.01-.05.01c-.09.14-.26-.01-.14-.12.02-.11.05-.14.14-.09l-.84-3.18-.47,1.81s.01.01.02.01c.08-.11.26.05.18.12-.07.04-.17.03-.23-.03l-.04.15s.03.02.04.03c.2-.03.16.14.19.24.01.11-.18.12-.2,0-.01-.05.07-.11-.01-.15-.02,0-.03,0-.05,0l-.2.76c.06,0,.11.03.16.05.09-.08.17-.03.22.04.09.11-.07.09-.09.15-.02.05-.07.09-.11.14.08.1-.05.12-.07.18-.03.05-.07.09-.11.14.15.17-.17.09-.19-.03l-.32,1.21v.04c.14.01.33-.14.37.13,0,.07-.04.13-.12.14h0c-.06.05-.12.09-.19.13.1.09-.07.18-.11.26.02.13-.07.26-.2.28l-.17.65c.05.02.1.08.03.13-.02.01-.04.05-.07.03l-.17.67s0,.06-.02.08l-.07.25c.1.01.2.05.08.11.21-.03.38-.07.3.21h.13c.05-.12.05-.28.25-.29-.14-.07.01-.21.1-.12.08.08-.06.09-.06.15.16,0,.35.33.08.31-.09.08-.27.06-.35-.01,0,.14-.2.22-.21.04l-.13-.05s-.09.02-.12,0c-.05-.05.05-.07-.01-.18-.03.05-.07.09-.12.11l-.05.17s.03.05.01.09c0,0-.02-.01-.03-.02l-.34,1.3s0,0,0,0h0s-.3,1.16-.3,1.16l-1.25-2.18-7.08,12.29-.26.45-.26.45-1.84-9.3c-.12.03-.36.01-.28-.17,0-.15.14-.11.23-.09-.06-.28-.25-1.27-.3-1.53-.03.13-.09.17-.21.09-.08.15-.14.04-.2-.01-.03.04,0,.14-.1.11-.08.01-.17.03-.24-.02-.03.02-.06.07-.11.03-.08-.03-.17.04-.24.02-.13-.04-.22-.11-.14-.27-.02-.05-.11-.08-.05-.14s.1.03.15.04c.12-.15.34-.26.37-.48,0-.03.04-.05.08-.03.08.05-.03.12.02.17.07,0,.13-.09.21-.02.08.03.29,0,.06.17-.06.08-.06.26-.09.36h.01l.05.04.2-.15s0-.08.02-.11c-.04-.11.08-.14.13-.22l-.17-.87c-.06,0-.08-.07-.13-.1-.12-.02-.13-.12-.15-.21-.11-.02-.17-.1-.03-.11.06-.03.13-.09.04-.17s.03-.2.13-.1l-.17-.87s-.02.02-.03.04c.03.15-.22.08-.12-.03,0-.07.05-.13.11-.16l-.28-1.42s-.05-.29-.06-.33c-.03.04-.09.09-.13.09.27.18-.18.37-.21.11h0c0-.08.06-.14.13-.15,0,0,.02,0,.03,0-.03-.11-.14-.13-.21-.22-.11.09-.13-.06-.2-.08-.05-.04-.1-.08-.15-.12-.04.01-.11.12-.1-.03s.12-.19.24-.21c.09-.1.19-.14.3-.03.06,0,.11.02.17.04l-.13-.66s-.04.05-.07.05c-.15.01-.09-.12-.12-.19h0s-.1.03-.1.03c.11.28-.32.15-.12-.03-.02-.03-.04-.06-.05-.09-.33,0,.04-.41.14-.16.08.06.15.13.13.25h0c.08-.05.14-.02.17.04l-.09-.47c-.13.02-.18-.26-.31-.13-.15.1-.22-.12-.04-.1l.03-.03c0-.1.09-.19.07-.29-.02,0-.03,0-.04-.02-.14.02-.24-.08-.29-.2-.03.02-.05.06-.1.02-.13-.14-.03-.2.05-.26-.34-.02.02-.38.11-.11.06-.05.12.06.19.08,0,0,.01-.01.02-.02-.02-.11,0-.16.06-.18l-.1-.53s-.03-.05-.02-.08c0,0,0,0,0,0l-.02-.08c-.06-.03-.12-.07-.19-.07h0c.03.08-.2.16-.15.04-.27-.12-.13-.42.11-.36.09-.03.11.07.18.1l-.08-.4s-.03-.06-.02-.08l-.07-.37c-.1-.04-.16.08-.19.16.07.15-.02.16-.13.16-.17-.02-.2-.27,0-.25l.09-.18c-.05-.09-.02-.11.03-.14-.11-.14.02-.13.13-.13l-.15-.77-.35,1.75h.05c-.03.05-.03.07-.06.09v.02c.2.16.13.42.05.62.08.05-.01.12.02.18.17-.15.14.05.19.1.01.05.03.09,0,.13.23.07-.04.21-.03.03l-.15-.06s-.07.04-.1.03c-.04,0-.07-.01-.09-.04.01.08-.04.11-.11.14l-.07.38c.06.03.11.07.14.13.05-.05.04-.17.16-.15.14.02.1.28-.06.21-.09.12-.03.31-.17.39,0,0,0,.02,0,.03.13.02.2.12.27.21.03.01.06.03.08.05.22-.01.15.34-.04.28,0,0,0,.01-.01.02h0c0,.08-.09.05-.12.01-.06.05-.13.07-.2.08,0,.05,0,.09.04.12.14-.01.13.1.13.18.03-.14.29-.14.31.02.06.24-.36.27-.32.02-.02.11-.14.07-.22.1-.05.05-.09-.04-.14,0h-.08c-.02.14.12.34-.09.4.03.08-.11.13-.06.01h0s-.03,0-.04,0l-.08.38c.27-.03.2.4,0,.24-.01,0-.03,0-.04-.01,0,.01-.14.7-.14.72h0l-.08.39c.06.02.08.08.06.14-.02.04-.06.07-.1.07l-.4,2.01c.14,0,.08.23-.04.19l-.09.47s.05-.06.08-.07c0,.03,0,.06,0,.1-.04.02-.08.03-.08-.02l-.54,2.75c.17,0,.09.26-.03.17l-1.34,6.76s.04-.02.06-.03c.02.09-.01.18-.09.17l-.58,2.92s.06.03.08.05c.46-.08.26.75-.17.41l-.62,3.13h1.12c-.18-.08.08-.33.15-.17.02.06.06.13-.02.17h5.69l-1.25,2.17v-1.49h-.95v3.14c-.37.64-1.5,2.6-1.84,3.2l-1.4-6.34h-1.88c.2.2-.37.28-.23,0h-.23l.17-.86c-.11-.05-.08-.14.03-.14l.91-4.57c-.1-.44-.28-1.26-.37-1.7-.04.06-.17.07-.16.14-.1.29-.3.09-.42.05-.13-.04.08-.12.05-.21,0-.13.02-.24.19-.25.17-.07.24.03.32.17l-.07-.32s-.05,0-.06-.02c0-.03,0-.09.03-.12l-.05-.23c-.14-.12-.3-.39-.12-.55l-.14-.65c-.14.1-.13.2-.32.18-.02.03-.04.09-.06.1-.07.01-.04-.04-.05-.09-.01-.07-.06-.15-.17-.07-.09.07-.19-.05-.09-.13.1-.1-.04-.24.03-.36-.02-.25.39-.33.53-.24l-.51-2.31c-.05-.05-.1-.1-.15-.14-.17.08-.15-.17.01-.07.03,0,.06-.02.08-.05l-.04-.17c-.06-.02-.12-.05-.06-.12.01,0,.02,0,.04,0l-.24-1.1c-.03.17-.09.42-.13.59.07.05,0,.22-.05.25l-.07.3c.09.03.12.18.19.25.06.06.05.13,0,.19-.09.09-.21.01-.27-.05l-.67,3.07c.11-.02.2.05.18.19h0l-.07.07c.02.13-.22.08-.16-.02,0,0,0,0,0-.01l-.07.33s.05.05.07.07c0,0,0,0,0,0h0s0,0,0,0h0c.11-.07.05-.29.27-.21q.2-.08.32.08l.09.04c.09-.06.1-.16.1-.26-.02-.27.39-.11.22.1l.02.04c.25-.19.35-.17.44.07.03.09.01.12-.08.11-.08-.01-.16.04-.23-.02-.07.14-.07.34-.32.26-.02.03-.06.04-.09.02,0,0,0,0,0,0-.16.14-.56.28-.63-.03-.06-.05-.06-.12-.08-.18h0c-.02.06-.05.11-.11.12l-.28,1.31c.1.05.07.16-.05.27-.09.38-.6,2.74-.69,3.18.19,0,.02.26-.02.1l-.89,4.12s.1-.08.14,0c.06.09-.12.19-.16.09l-1.68,7.74h8.1c-.19.33-2.56,4.44-2.82,4.89v-4.21h-.95v4.95h-4.43v.95h47.9v-.95h-5.13Zm2.69-9.17c-.01.09-.08.08-.14.06-.16.05-.05-.19.06-.16.1-.03.08.05.08.09Zm.15.46c-.07.06-.18-.08-.1-.12.06-.04.16.07.1.12h0Zm.84.32c.08-.09.18.07.08.12-.09.09-.18-.07-.08-.12h0Zm-.51-.31s-.04.08-.07.11c0-.03-.01-.05-.02-.07.03-.04.06-.05.09-.03h0Zm-.07-.52c-.17.16-.2-.19,0-.11.02.03.02.08-.01.11h0Zm-.26-2.36c.07-.06.11.02.11.08-.06,0-.13,0-.11-.08h0Zm-.03.91c.06,0,.15-.07.15.06.15.14.07.22-.05.35.03.04.08.07.07.13.03.04.03.1,0,.14-.05.08-.05.22-.2.17-.26,0-.26-.47.02-.41.01,0,.02-.02.03-.03-.04-.09-.17-.09-.15-.2-.01-.11,0-.21.13-.23h0Zm-.13-.44s.06.05.05.1c.08.27-.49.22-.32-.09h0c.09-.11.18-.1.27-.01h0Zm-.28-.78c.07-.08.21.01.15.1-.06.1-.25-.02-.15-.1h0Zm-1.1-5.15c-.08,0-.14.01-.16-.1.08,0,.13.03.16.1h0Zm-.27-.93s.03.02.05.03l-.04.06c-.1,0-.09-.07-.02-.09h0Zm-1.77-2.82c-.1-.07.05-.23.07-.01-.02,0-.05.01-.08.01h0Zm.17-1.85c.15-.02,0,.19-.05.03.01-.01.03-.03.05-.03h0Zm.05,2.28c-.11.1-.08-.18.02-.11.03.05,0,.08-.03.11h0Zm.05-.93c-.04.17-.18-.07-.02-.06.05,0,.03.03.02.06h0Zm-.09-.6c.06.25-.38.02-.1-.02-.09-.14.09-.39.2-.21.03.1.01.19-.11.22h0Zm-1.34,4.21c-.17.04-.1-.18.01-.22,0,.09.06.16-.02.21h0Zm-.16,4.8c.23-.11.2.14.02.07-.03-.01-.06-.05-.02-.07Zm.02-1.85s.05-.02.07-.02c.12.11-.11.2-.07.03h0Zm.15,2.17c-.05.04-.14.01-.09-.06.05-.08.17,0,.09.06h0Zm.19-1.23c-.03.12-.11.18-.23.18-.09,0-.07-.07-.08-.12-.04-.13.01-.2.15-.21.13,0,.15-.02.16.15h0Zm.03-.59c-.24.23-.23-.29.03-.04.28-.02.02.35-.03.04h0Zm0-.59c.12-.12.23.06.12.15-.09.09-.25-.08-.12-.15Zm.27,1.48c-.06.09-.17.01-.11-.08.06-.08.2,0,.11.08h0Zm.05-1.07s.01-.03.02-.04c0-.05-.01-.09-.02-.14-.07-.05-.14-.1-.02-.17.02-.05.07-.11.06-.15-.11-.29.06-.39.29-.46.1-.11.17-.08.21.05.03.08.14.03.14.13.01.14-.09.18-.17.05l-.08-.06s-.03.02-.04.03c.02.06,0,.12-.03.18.12.09.22.21.29.34l.12-.03c.01.05.01.11-.04.15-.05.34-.22.31-.52.27-.02.02-.05.05-.07.07-.22,0-.26-.05-.17-.22Zm.89-1.51c.07.1-.03.13-.1.17,0,.07.07.17-.02.22-.11.06-.07-.12-.25-.14h0c-.03.07.03.21-.13.15-.15-.02-.23-.07-.08-.2.09-.06.15,0,.21.05h0s0,0,0,0c.1-.06.25-.41.36-.25h0Zm-.15-.22c.03-.07.14.04.08.08-.02.02-.06.02-.08,0-.02-.02-.02-.06,0-.08h0Zm.54.3c.08-.05.15,0,.2.05h0c.09-.02.18-.09.27-.07h0c.11,0,.14.06.13.15,0,.12-.08.1-.16.09-.11.02-.11-.07-.14-.14l-.11.1c0,.16-.1.21-.24.15.03.11.02.17-.11.18-.26.04-.24-.36,0-.34,0-.03.02-.05.04-.08-.01-.09.06-.09.11-.1Zm.11-.57h0s.1.09.05.16c-.03.05-.07.02-.1,0-.07-.08.03-.1.05-.15h0s0,0,0,0c-.01,0-.02-.01-.03-.02-.23.01-.1-.31.06-.25.07.01.13.07.07.16,0,.06-.02.11-.09.11h0Zm-.13.18c.08.03,0,.09-.02.13l-.06-.05s.03-.09.08-.08h0Zm.49-.15c-.15.04-.08-.12-.04-.18-.14,0-.1-.09-.07-.16.12-.17.31.09.13.19-.02.05.05.11-.02.15h0Zm-.56,3.09c-.04-.06-.17,0-.16-.12l-.07-.07c-.11,0-.27-.15-.2-.26.21.02.76,0,.45.35.02.03.02.07-.01.1,0,0,0,0,0,0h0Zm-.27.21c-.07.07-.11.02-.14,0-.13-.16.18-.22.14,0h0Zm.2-1.46s-.08-.03-.06-.09c-.01-.08-.09-.17.01-.24.09-.06.14.03.19.08h0s0,0,0,0h0s-.1.11-.1.11c0,.05.03.12-.04.14h0Zm.15-.25s0,0,0,0c0,0,0-.01,0,0,.04-.1.15-.01.21-.07.1-.03.17.02.24.08.27.11.27.12.22.26,0,0,0,0,0,0h0c-.09-.09-.22.02-.32-.07-.15.09-.17-.05-.22-.14-.07.02-.1-.02-.14-.07h0Zm.26-.3c.11.15-.23.09-.09-.03.05-.04.07,0,.09.02h0Zm-.07-.31c.03-.13.11-.1.19-.05.13.14.03.16-.09.18-.14.04-.13-.05-.11-.14h0Zm.25,1.53c.05-.07.15.06.09.1-.06.09-.15-.04-.09-.11h0Zm.13-.18c-.11.06-.09-.11.02-.07,0,.03,0,.06-.02.07h0Zm.18.48c.08.12.06.2-.07.26-.29,0-.17-.43.07-.26h0Zm-.07.51c.02-.11.21-.08.18.03-.07.19-.24.08-.37,0,.06-.06.12-.05.19-.04h0Zm-.09-1.21c-.25-.18,0-.19.09-.25h0s0,0,0,0h0c.05.05.14.02.17.11.01.21-.03.23-.26.14h0Zm.09-.84c-.07.11-.21-.05-.15-.13.09-.14.24.03.15.12h0Zm-.84-.16c.21-.16.31.29.04.22-.07-.02-.1.05-.15.05-.1,0-.19,0-.13-.15-.03-.26.15-.09.24-.12h0Zm-.05,2.79l-.11-.02c-.15.13-.3.22-.45,0-.01,0-.03.02-.04.03.02.15-.08.14-.17.12-.06-.02-.1-.09-.08-.15,0,0,0,0,0,0,.03-.11.14-.08.22-.07.1-.09.15-.22.27-.29.05-.03.11-.05.12-.2.08.2.1.25.17.39h0c.09-.05.06-.14.07-.24.13.07.12.15.08.23.03.04.09.07.07.13h0c.08.08,0,.15,0,.23-.1-.02-.05-.15-.13-.16h0Zm.08.5c-.14-.34.5-.12.18.07-.06.03-.14.01-.17-.05,0,0,0-.01,0-.02h0Zm.11,1.28s-.03-.07.01-.1c.12-.08.16.09.25.1-.09.03-.19.1-.27,0h0Zm.86.36h0,0l.11.22c-.12.01-.18-.07-.21-.14-.02-.05.07-.05.1-.08h0s-.11-.05-.08-.13c.05-.12-.21-.01-.12-.16-.01-.04,0-.08.04-.09.11-.03.11.1.15.17.08-.02.11.03.12.1.02.09-.07.08-.11.11,0,0,0,0,0,0h0Zm.08-1.33c-.1.12-.39.07-.3-.12.08.05.44-.09.3.12h0Zm.45.83c-.09.12-.18-.06-.11-.14s.2.06.11.14h0Zm.21,1.44c-.07.07-.25-.03-.14-.13.1-.11.27,0,.14.13h0Zm.74-1.5c-.02.13-.11.07-.19.07h0c-.08.07-.13.23-.27.08-.12-.18.1-.17.15-.25.02-.19.1-.11.18-.04.12-.03.14.05.13.14h0Zm-.2-.43c-.14.07-.19-.14,0-.1,0,.04,0,.08,0,.1h0Zm.2-.58c.16.29-.32.44-.41.16-.05-.06-.09-.09-.14,0,.12.09.19.4.03.49-.13.07-.24.21-.41.1-.06-.01-.14.1-.18-.03-.12-.31-.1-.39.15-.61.09-.3.12-.02.17.02.2.06.14-.27.34-.15.15-.25.3-.13.44.01h0Zm-.32-2.49h.12c0,.12-.15.11-.12,0h0Zm-.08.36c.02-.12.09-.06.16-.05.14,0,.07.2-.04.14-.11.05-.13-.02-.12-.1h0Zm-.25-1.03s.06,0,.07.06c-.1.2-.23-.04-.07-.06h0Zm-.05,1.22c.06-.05.1,0,.15.02.16.19-.32.13-.15-.02Zm.09.79c.05.1.16-.03.21.06h0c.09-.13.07-.16.23-.18.12-.12.2.11.09.17-.1.05-.21.12-.32.01h0s0,0,0,0c-.07.04-.14.07-.21,0,0,.01-.02.02-.04.03-.08.02-.21.25-.21-.05-.18-.19.25-.29.24-.05h0Zm-.36-1.12c.05-.05.18-.01.12.07-.05.07-.18,0-.12-.07h0Zm-.3.23c.06-.09.21.03.11.11-.07.09-.18-.02-.11-.11h0Zm.05.5c.05-.09.22-.11.3-.01.1.13-.03.26-.08.38-.04.09-.14.09-.21,0-.17-.12-.07-.27-.01-.36h0Zm-.14.85c.23-.05.29,0,.23.24h0l.14.02c.05-.14.06-.33.28-.34-.15-.08.01-.23.12-.13.09.09-.07.1-.06.17.17,0,.38.37.09.35-.09.09-.3.07-.38-.02,0,.15-.22.24-.24.05l-.15-.05s-.1.03-.14,0c-.05-.06.06-.07-.02-.2-.08.13-.2.17-.34.17,0,.06-.06.11-.02.17.07-.02.28-.07.19.07-.12-.08-.12.04-.15.1-.09.12-.13-.07-.08-.14-.11-.03-.27-.04-.19-.23-.06-.03-.17-.12-.03-.11l.02-.09c-.15-.23.23-.35.35-.15.09.03.49.03.29.16.03,0,.06,0,.09,0h0Zm-.02-2.86c.03.07-.05.07-.08.1.05.15-.2.11-.11-.02.06-.03-.01-.14.08-.15.05,0,.1.03.11.08h0Zm.11-.86h0c.07,0,.05.05.04.08-.03.08-.21.06-.25,0-.24.12-.11-.27.03-.1.06-.03.13-.02.18.02h0Zm-.18-.44c.06.05.02.12-.04.1-.02-.05-.04-.1.04-.1h0Zm-.23-1.6c.16-.21.49.14.31.31-.11.13-.23.03-.32-.03-.12-.08-.06-.19,0-.28h0Zm-.14-.23c.13.06.04.19-.06.2,0-.04-.02-.07-.02-.11-.15.1-.21-.08-.14-.21-.2-.09.12-.23.07-.01.07-.01.14.04.16.12,0,0,0,.02,0,.03h0Zm-.32-1.55c-.13-.05-.32-.07-.14-.27.04-.08.08-.16.19-.08.18.16.17.23-.05.36h0Zm.09,1.03c.09-.02.12,0,.09.09-.02.06-.03.13-.11.05-.12-.06-.05-.1.02-.14h0Zm-.01,1.4c.06,0,.12-.04.15-.09h0,0s0-.08.05-.1c0,0,.01,0,.02,0,.09.04-.02.1-.07.1h0s.11.09.11.09c.13.02.13.12.16.21.06.11-.02.19-.1.25-.13.08.12.22-.01.29-.05.02-.1-.04-.08-.11l-.03-.03c-.1,0-.19-.09-.3-.06,0,.02,0,.03-.01.05.02.14-.07.24-.19.29.02.03.06.05.02.09-.19.18-.23-.06-.34-.11-.11-.07,0-.14.04-.22,0,0-.01-.01-.02-.02-.22.08-.23-.25-.15-.2.09-.11.11-.38.35-.15.05.04.05.05-.03.11,0,.03.02.06.03.09.06-.02.11-.07.17-.02h.06c-.06-.06-.05-.12-.03-.18-.03-.09.05-.09.09-.11-.03-.11.05-.12.12-.13h0Zm-.82.19s.08-.1.08-.01c0,.01-.02.04-.04.06-.02-.01-.04-.03-.04-.04h0Zm.39-1.32s.1-.03.1.04c-.01.07.03.15-.07.17-.06,0-.1-.05-.1-.11,0-.05.03-.09.08-.1h0Zm-.29-.2c.17.12-.22.32-.2.09.05-.06.08-.18.2-.09h0Zm-.17.61c.13.05.25.1.31.24.15-.02.17.05.17.15.05,0,.07.02.07.04.04-.02.08-.03.11.02.04.08-.07.11-.08.18.02.05-.02.07-.05.09-.12.11-.19.03-.27-.05-.09-.03-.05-.11-.05-.16-.02-.05-.03-.13-.05-.13-.29-.02-.22-.2-.17-.37h0Zm.03.84s-.05.06-.07.05c-.14-.04-.08-.17-.1-.27.11.04.2.08.17.22h0Zm-.22.75c.09.03.24.09.1.19-.09.06-.29-.13-.19-.2.03,0,.07,0,.09.01h0Zm-.05-.86c-.05.09-.07.17-.19.08-.22.03,0-.11-.08-.16.1,0,.06.08.08.12.08.07.1-.07.2-.03h0Zm-.46-2.01c.06-.01.08.04.09.09,0,.19-.29-.05-.09-.09h0Zm-.07.83c0-.12.05-.2.19-.14.15.07.3.53,0,.43-.15-.13-.29-.06-.18-.3h0Zm-.17.58s.06-.03.09-.04c0,0,0,0,.01.01.06-.03.1.03.15.06h0c.08.08.11.18.02.25-.09.13-.36-.13-.29-.21,0-.03,0-.05.02-.07h0Zm-.03,1.12c.09-.27.43-.3.32.04h.26c-.03.11-.05.21-.18.1-.03.08-.09.15-.08.25.01,0,.02.02.02.04.08.06.02.11-.02.17-.11.22-.38.03-.32-.16-.03-.09.07-.12.09-.18-.01-.02-.01-.05,0-.07-.08,0-.17-.11-.08-.18h0Zm-.26.64s.07-.04.1-.01c.03.02.04.07.01.1,0,0,0,0,0,0-.06.07-.18-.03-.11-.1Zm-.23.87c.03-.07.09-.08.15-.05.07-.06.13-.05.18.03.09-.05.07-.13.06-.21-.08-.4.41-.46.68-.32.05-.08.12,0,.18-.02-.15-.16.04-.14.1-.19.05-.01.09-.03.13,0,.07-.23.22.03.03.03-.02.05-.04.1-.05.15.03.02.04.06.03.1.02.11-.12.12-.13.2-.1.15-.2.08-.31,0,0,0-.02.02-.04.02-.08.34-.43.33-.72.31h0s-.07.03-.1.02c-.01.05-.06.09-.12.08-.05-.01-.09-.06-.08-.12,0,0,0-.01,0-.02h0Zm-.05,2.88c-.01.1.02.21-.11.25-.06.01-.11-.02-.13-.08,0,0,0,0,0,0,0-.15.17-.09.24-.17h0Zm-.12-.21c.09.14-.21.11-.11,0,.03-.02.07-.02.11,0h0Zm-.19-2.93c.02-.05.06-.04.1-.01.06.05-.03.15-.1.09,0-.03,0-.05,0-.08Zm-.23.61c-.05-.1-.05-.18.04-.26.35-.19.2.65-.04.26Zm.09,1.61c.11.14-.16.3-.21-.02.07.01.14-.05.21.02Zm-.34.56s.08-.01.13-.02c.02.09-.03.18-.1.09-.02-.02-.07-.04-.03-.07h0Zm.26-5.17c-.03.18-.09.32-.31.29-.33-.05-.31-.33-.12-.54.05-.08.15-.04.22-.08-.22-.31.34-.26.06,0,.15.11.23.07.15.33Zm.04-1.93c.06.04.05.11.05.18-.12-.03-.18-.18-.05-.18h0Zm-.06.4c.12.03.08.15.13.22.08.22-.3.35-.41.16-.07-.3.03-.44.28-.38h0Zm-.67-1.26c.25-.33.46.17.28.22-.12.1-.2.06-.27-.06h0c-.06-.05,0-.11,0-.16h0Zm-4.87-2.2c-.2,0-.17-.21-.02-.23.13-.04.17.26.02.23Zm-.06-1.56s.04-.04.07-.06l.03.04c0,.07-.13.08-.09.02Zm.28.19c-.2-.02.05-.19.09-.06-.02.05-.04.07-.09.06Zm-.02-1.98c-.33.05.04-.41.08-.12,0,.06-.03.11-.08.12h0Zm.18,1.22c-.08.03-.1-.04-.12-.09-.03-.07.05-.04.07-.06.07-.02.1.04.14.08-.03.03-.06.05-.09.07Zm.02-.47c-.18-.06.11-.27.13-.12-.03.06-.06.12-.13.12h0Zm.36,1.18c-.17-.1-.01-.38.17-.27.12-.11.2.05.09.12,0,.13-.13.24-.25.15h0Zm.32.22c.1-.02.11.14.02.15-.1.03-.11-.14-.02-.15h0Zm-.16.35c-.02-.11.15-.16.14-.03.03.1-.13.13-.14.03h0Zm.18,1.2c-.33-.1.18-.49.15-.11.03.15-.08.12-.15.11h0Zm.2-2.61s.13-.05.15.01c.04.09-.12.13-.15.05-.02.11.18.15.06.28-.1.08-.2.1-.26-.05-.19.01-.36,0-.39-.24-.13.1-.22-.1-.05-.11.06-.11.07-.23.2-.29v-.39c.21-.32.72-.25.69.13.07,0,.14-.11.22-.02.1.1-.09.28-.17.13-.15.05-.21.23-.38.21h0s0,.02-.01.02h0c.08.08.09.17.09.27h0Zm-.29-4.24c.11,0,.36.05.15.19h0c-.01.05.02.11-.05.15-.02.22-.21.14-.34.14h0c-.02.05.03.15-.07.19-.03-.09.02-.14.07-.19h0c-.09-.28-.1-.5.24-.48h0Zm-.09-.83s.03-.03.04-.04l.08.09c-.05.05-.13.03-.12-.05h0Zm1.12-.51c.15-.18.4.16.15.19-.07.05-.12.04-.15-.05h0c-.08-.05-.05-.1.01-.15h0Zm0,.91c.12,0,.13.22,0,.22-.13,0-.13-.22,0-.22h0Zm.04.46c.11-.1.38.02.28.18-.1.19-.23-.08-.36-.08h0l-.15-.07c.09-.07.16-.07.24-.03h0Zm.01,2.04s-.03.04-.04.07c.02.02.03.04.02.07.14.08.18.17.01.26-.02.04-.06.07-.1.08h0c-.08.03-.11-.04-.15-.08-.16.02-.23-.14-.33-.23l.23-.13s-.06-.1-.02-.12c.13-.06.03.14.12.13,0-.07.03-.13.1-.15-.01-.29.36-.16.25-.05.01.08.03.16-.09.15h0Zm-.17.74c-.07-.02-.11-.08-.1-.15.1.02.08.1.1.15h0Zm-.61-3.45c-.03-.14.23-.14.18,0-.04.06.1.14,0,.18-.05.03-.13.09-.2.03-.08-.07.05-.14.01-.21h0Zm.24,2.02c-.14,0-.19-.21-.03-.24.16-.05.19.24.03.24h0Zm.05.18c.02.12-.13.14-.14.03-.02-.12.09-.08.14-.03h0Zm.01-.78c-.1,0-.11-.18-.01-.18.1,0,.11.18.01.18h0Zm-.07-.75c-.15-.01-.03-.23.06-.1.01.07-.03.1-.06.1h0Zm-.15,1.02c.07.01.11.14,0,.13-.08.02-.1-.11,0-.13h0Zm.07,1.45c.07-.07.11-.06.13.05.02.09,0,.1-.07.06-.06.1-.17-.08-.06-.11h0Zm.11.79s.09.14.02.16c-.08,0-.11-.17-.02-.16h0Zm.4-1.89s.06-.03.08-.01c.08.02.03.14-.04.11-.04-.02-.06-.06-.04-.1h0Zm.24-.93s0-.06,0-.09l.07.03c.03.07-.04.12-.07.05h0Zm-.32.62s0,.06-.02.07c0,0,0,0-.02,0-.11-.04-.05-.18.04-.08h0Zm-.09-2.23h0c-.06.18-.15.06-.24.03l-.05-.03c-.09.16-.41.07-.35-.11.03-.13.14-.12.25-.13.1-.05.35-.13.35.04.12.04.12.11.05.19h0Zm-1.03.65c-.05.03-.09,0-.11-.05-.11-.05-.07-.11,0-.15.1-.07.11.03.14.09.05.05.02.09-.02.12h0Zm0,2.61s.05.03.08.05c-.05.08-.08.08-.15.02.03-.03.05-.07.08-.07h0Zm.01-.21c-.07,0-.06-.09,0-.12-.11-.07-.04-.44.11-.31-.03-.22.25-.05.29.06.07.08.2.1.23.22-.24.03-.24.3-.55.09-.02.02-.04.04-.07.05h0Zm.58.14c.01.09-.04.11-.11.12-.1,0-.15.21-.25.12-.1-.11.15-.13.16-.22,0-.06.04-.11.09-.11.06,0,.11.04.11.09h0Zm.57,1.97c-.05.23-.41.09-.3-.11.08-.17.36-.08.3.11h0Zm.05.87c.03.42-.55.1-.21,0,0-.06.05-.1.11-.1s.1.05.1.11h0Zm-.36,1.06c-.06-.02-.07-.07-.08-.13,0-.05.03-.06.06-.05.11,0,.17.2.02.18h0Zm.53,2.18h0c-.07.01-.15.03-.2-.02-.2-.04-.23-.13-.09-.29.05-.21.18-.1.27-.05.21.11.21.25.03.36h0Zm.43.11s0-.06.05-.07c.14.02.02.14-.05.07h0Zm.2.45c-.21.02-.09-.26,0-.25.18-.03.16.27,0,.25h0Zm.41-1c-.14.43-.78-.1-.3-.33.16-.1.23.03.31.12.06.07.17.15,0,.21h0Zm-.56-1.78c-.13.43-.77-.1-.3-.33.16-.1.23.03.31.12.05.07.17.15-.01.21Zm-.23.8c-.14.43-.78-.1-.3-.33.16-.1.23.03.31.12.05.07.17.15-.01.21Zm-1.79-.88c-.14.43-.78-.1-.3-.33.16-.1.23.03.31.12.05.07.17.15-.01.21h0Zm2.26,1.23c-.02-.13.28-.13.23.01-.02.19-.23.13-.23-.01h0Zm.34-1.62c-.06.02-.1-.01-.14-.06.06-.35.39-.1.14.06h0Zm.19.19c.02-.07.09-.07.09,0s-.08.07-.09,0h0Zm.15,1.6c-.12-.01-.17-.16-.04-.19.12-.02.11.15.04.19Zm.07-.54c-.1.02-.12-.17-.03-.19.1-.02.12.17.03.19h0Zm.27,3.17c-.05.02-.11.04-.15-.02-.12-.16-.08-.24.11-.26.04-.01.08-.02.1.03.1.11.03.18-.06.25h0Zm-.01-4.11c0-.08.03-.19.1-.06.05.08-.1.18-.1.06h0Zm.17,2.3c-.07.02-.11-.11-.04-.13.05,0,.12.12.03.13h0Zm.12-1.72c0-.22.26,0,.06.05-.02-.01-.06-.03-.06-.05h0Zm.17,1.11c-.05-.1-.2-.2-.06-.29.08-.05.17-.06.23.05l-.03.16c-.05.02-.03.17-.14.08h0Zm.38,3.02c.07.07.08.14-.01.2h0c-.08.09-.14.02-.21-.03h0c-.1-.08-.02-.14.02-.21.08-.1.14-.03.2.03h0Zm-.27-4.3c.1-.04.13.12.03.13-.09.04-.1-.11-.03-.13h0Zm-.24-1.1c.33,0,.12.35-.06.08,0-.04,0-.09.06-.08h0Zm-.02-.42c0,.1-.08.09-.14.12,0-.07.07-.12.14-.12h0Zm-.52.04c.02-.16.06-.26.22-.09.11.08.01.2.05.29.05,0,.06.05.07.09.12.14-.16.22-.19.08-.03-.05-.13-.07-.04-.14,0-.02,0-.03,0-.05-.12-.01-.13-.09-.11-.18h0Zm-.12,1.32c.11-.08.31.08.17.18-.1.12-.31-.08-.17-.18Zm.15-2.95c.03.12-.2.11-.21.03-.07-.2.19-.17.21-.03h0Zm-.11-.18c-.05.08-.15.05-.15-.04.03-.06.15-.07.15.04h0Zm-.13-.34s.07.04.07.08c0,.19-.26-.04-.07-.08Zm-.32.8c.1-.13.28.08.17.17-.13.13-.29-.03-.17-.17Zm.09.47c.34.15.35.67-.03.7.02.07.13.12.05.21-.09.11-.29-.05-.15-.15-.07-.14-.25-.17-.26-.34,0,0-.02,0-.02,0h0c-.09.12-.22.12-.35.14-.08.03-.11.18-.24.1-.1-.09-.13-.18.01-.26-.03-.15-.04-.28.07-.36-.08-.07-.04-.2.08-.17.06-.07.12-.03.14.05.12.05.24.04.32.16l.39-.05Zm-9.08-5.05c.34.15.35.67-.03.7.02.07.13.12.05.21-.09.11-.29-.05-.15-.15-.07-.14-.25-.17-.26-.34,0,0-.02,0-.02,0h0c-.09.12-.22.12-.35.14-.08.03-.11.18-.24.1-.1-.09-.13-.18.01-.26-.03-.15-.04-.28.07-.36-.08-.07-.04-.2.08-.17.06-.07.12-.03.14.05.12.05.23.04.32.16l.39-.05Zm-.06-3.4c.34.15.35.67-.03.7.02.07.13.12.05.21-.09.11-.29-.05-.15-.15-.07-.14-.25-.17-.26-.34,0,0-.02,0-.02,0h0c-.09.12-.22.12-.35.14-.08.03-.11.18-.24.1-.1-.09-.13-.18.01-.26-.03-.15-.04-.28.08-.36-.08-.07-.04-.2.08-.17.06-.07.12-.03.14.05.12.05.23.04.32.16l.39-.05Zm8.28,7.94c.06-.04.05.04.07.06.03.07-.02.11-.05.15-.1-.06-.13-.16-.01-.21Zm.39-1.22c.16,0,.1.23-.04.19-.2,0-.1-.18.04-.19h0Zm-.05-1.04c.06-.1.22-.03.1.05-.07.13-.24.03-.1-.05h0Zm.01,1.28s.06.03.09.06c-.09.07-.21,0-.09-.06Zm.02,1.18c.08.01.06.09-.02.09-.06-.03-.05-.1.02-.09Zm.02-.12c.03-.19.28.08.13.12-.06-.02-.13-.04-.13-.12h0Zm.21-.31c0,.09-.16.05-.18,0,.03-.06.16-.08.18,0h0Zm-.29-3.14c0-.14.25-.14.24,0-.01.16-.27.15-.24,0h0Zm.05.76c.07-.05.15.07.1.13,0,0,0,.03.02.04,0,.08-.09.08-.09,0-.02,0-.04-.02-.06-.04-.04.02-.09,0-.11-.04-.02-.03-.01-.07.01-.09.06-.06.11-.07.13,0h0Zm-.15-.5c.1.01.04.15-.04.12-.12-.01-.05-.15.04-.12Zm0,2.55c.04.25-.21.23-.35.34h0s-.03,0-.05,0c-.04.03-.07.09-.13,0h-.05c-.03.17-.2.09-.3.05h0c-.06.01-.09-.07-.05-.09.14-.21.21-.11.4-.11.02-.05.06-.05.1-.06.01-.01.03-.02.04-.02.02-.04.05-.08.07-.12-.02-.04.02-.09.02-.13-.03-.02-.03-.05,0-.08.03-.38.63-.04.28.22h0Zm-.25-1.11c.11-.04.1.06.05.13-.05-.04-.13-.1-.05-.13h0Zm.02-.92c-.12,0-.11-.18,0-.18.12.01.11.19,0,.18h0Zm.07-2.21c-.08.03-.15.03-.22-.04.06-.04.28-.1.22.04h0Zm-.22-.67s.18-.15.14.06h0c.08.14-.1.17-.14.04h0s0,0,0,0c-.15.05-.14-.18,0-.1h0Zm-.15.48c.08.02.12.17,0,.15-.05-.01-.1-.02-.09-.09,0-.03.03-.08.09-.06h0Zm-.13-1.64s.03.02.05.03c-.02.14-.17.04-.05-.03h0Zm-.16.46h0s0,.07-.03.08c-.08.04-.19-.12-.17-.19-.25-.1.13-.26.1-.05.06.02.1.08.11.15h0Zm-.15-.77c.21-.03.13.29-.06.23-.05.02-.05.11-.12.09-.13-.08.03-.14.11-.15-.1-.11,0-.14.07-.16Zm-.55.1c.01-.11.1-.05.15-.06h0s0,0,0,0c0-.01,0-.03,0-.04-.16-.16.17-.29.23-.13.04.06.03.14-.08.16-.05.04-.1.06-.15,0h0c0,.06,0,.13-.09.14-.06,0-.07-.04-.06-.08h0Zm-.2,1.07c.06.02.1-.1.17-.04.08.09,0,.23-.11.14-.08.14-.21-.07-.06-.1h0Zm.05.39c-.12-.31.15-.08.2-.15,0-.06.02-.11.07-.15.05-.1.19,0,.24.05.05,0,.09,0,.14,0h0c.03-.08-.16-.12-.06-.23-.08-.03-.16-.05-.24-.07.07-.03.35-.16.24.01.09-.01.1.12.2.1.1-.12.18,0,.22.05.09.1-.04.16-.07.24,0,.07-.09.03-.11.09l-.05.06c.09.12.36.16.16.4-.07.05-.13.06-.2,0l-.1-.02-.15-.04c0,.15-.2.07-.3.09-.09.13-.39.15-.4-.04-.05-.05-.06-.1,0-.15h0c-.01-.06-.11-.13,0-.19.05-.08.13-.02.19-.05h0Zm-.3-.44c.16-.02.14.2,0,.2-.13.02-.11-.19,0-.2h0Zm-.09,4.81s.04.03.04.06c0,.02-.03.04-.05.04,0,.04,0,.07-.04.08-.12.09.02.19,0,.28.03-.02.07-.03.11-.03-.04-.09,0-.19.1-.23.02,0,.03,0,.05-.01.14-.02.19.21.08.26.04.07.08.16-.04.17,0,.01,0,.02,0,.04.17-.02.17.21,0,.15-.1,0-.2.12-.29,0-.13-.03-.09-.15-.12-.23-.25.05-.44-.39-.08-.35.02-.13-.04-.33.16-.3.08,0,.1.04.09.08Zm-.21-.41c.19-.05.06.27-.04.09.01-.08-.07-.09-.09-.15-.03-.05-.05-.09.03-.1.12-.02.08.08.1.16h0Zm.15-.5c-.01.06.05.16-.04.18-.08.02-.05-.08-.06-.12-.05-.04-.1.05-.14,0-.01-.02.02-.07.04-.1-.06-.1.06-.12.09-.18l.06.1h0c.1.01.04.08.05.13h0Zm-.09-2.6c.07,0,.13.13.03.14-.08.01-.12-.13-.03-.14h0Zm-.06.43c.08.01.07.08.09.13-.03.25-.31-.15-.09-.13h0Zm-.43.79h0c.16-.01.16-.05.29.06.17.01.05.22-.07.18-.1-.05-.23-.07-.22-.23h0,0Zm-.23.75c.02-.08.08-.08.14-.02.17-.08.27-.03.29.15h0s0,0,0,0h0s0,0,0,0c.11,0,.19.03.13.17-.09-.02-.12-.08-.13-.17h0c-.11.08-.23.22-.3-.04-.06-.01-.15,0-.13-.1h0Zm.34.42c-.01.06-.05.1-.19.12.1-.07.1-.25.19-.12h0Zm-.44,2.08c0,.14-.15.08-.17-.02.02-.11.18-.09.17.02h0Zm-.14-1.42c.09,0,.06.09.01.13-.04-.04-.08-.1-.01-.13h0Zm-.06,2.21c.12-.24.24-.26.4-.05.05.02.11-.01.14.05.12.08.07.24.14.34.03,0,.06,0,.08.01.14.16.12.21-.07.25-.13.05-.13-.05-.13-.11-.04,0-.04-.05-.05-.08-.1-.06-.17-.18-.29-.2-.03.05-.07.05-.1,0-.11-.02-.17-.08-.14-.2h0Zm.03,1.61c.11,0,.12.09.15.16-.1.38-.54-.14-.15-.16h0Zm-.33-1.2s.03-.07.07-.07c0,0,0,0,0,0,.18.03-.09.25-.08.06h0Zm.02,1.46s.04.05.03.09c-.05.13-.17-.11-.03-.09Zm-.14-.3c.08.06.06.09,0,.15-.07-.07-.07-.1,0-.15h0Zm-.27-1.62s.05.03.09.06c-.14.18-.2-.06-.09-.06h0Zm-.29.86s.03-.06.06-.08c.13,0,.12.15.01.14-.04,0-.09,0-.07-.06h0Zm-.2.51c.04-.08.1-.14.19-.17.09-.06.13-.18.25-.2-.04.16.2.25.1.42-.12.41-.62.21-.45.06-.08,0-.11-.02-.09-.11h0Zm-2.39-4.62c-.14.06-.1-.19,0-.05,0,.01.03.03,0,.05Zm-.06-.45c.06-.07.13-.03.2,0,.2.3-.42.28-.2,0Zm-.15-.89h.04c.06.08-.08.17-.04,0h0Zm-17.57-5.51c.05-.08.15.03.1.09-.07.07-.19-.02-.1-.09Zm0,.22c.09-.07.25.06.12.13-.07.03-.22-.08-.12-.13h0Zm-.46-2.49c.07-.04.1.04.04.08-.07.01-.1-.05-.04-.08Zm-.15-.09s.08-.06.12,0c-.03.44-.38.18-.12,0Zm-.25-.96c.06-.08.17.05.11.1-.03.03-.08.03-.11,0-.03-.03-.03-.08,0-.11h0Zm-.37,1.4c-.06.06-.14-.04-.06-.08.05-.02.13.04.06.08h0Zm1.46,8.85c.16-.12.3.26.11.18-.08-.03-.25-.01-.11-.18h0Zm.01-1.46c-.06.07-.09.02-.13,0s-.07-.07-.02-.12c.09-.09.25.06.15.13h0Zm.26-.55c-.16.4-.31.28-.57.16-.23.02.18-.38.27-.36.1,0,.21-.03.26.11.03.06.14-.04.15.06,0,.09-.08,0-.11.04h0Zm-.38-.69c-.09.07-.21.01-.1-.09-.16-.05-.17-.36.03-.29.09.06.13.14.06.24.04.05.09.09,0,.14h0Zm.13.1c.06.04.06.1.03.15-.07.1-.1,0-.15-.03-.13.18-.23-.07-.04-.05.03-.08.08-.12.17-.07h0Zm.26.15s.05,0,.05.03c.07.16-.18.06-.05-.03h0Zm-.08-1.94c.21-.26.4.2.08.21h0l-.08-.06c-.12.05-.12-.2,0-.16h0Zm-.13.29h0q.11.19-.03.33l-.02.1c.08.08.17.07.27.05.26-.06.17.36-.06.23l-.03.02c.22.22.22.32,0,.44-.09.05-.12.03-.12-.06,0-.08-.06-.15-.02-.23-.14-.04-.35-.02-.3-.27-.04-.03-.05-.06-.03-.1-.17-.14-.36-.51-.08-.62.04-.07.11-.08.17-.11h0,0c.09.1.3,0,.26.23h0Zm-.61,2.92s.02.03.03.05c-.11.11-.12,0-.11-.07.03,0,.07,0,.09.02h0Zm-.11-.61s-.04-.06-.02-.08c0,0,0,0,0-.01.21-.05.13.17.01.1h0Zm-.04-.44s-.1,0-.1-.07.07-.04.1-.07c.07-.03.02-.13.1-.15.05,0,.06.04.05.08.16.09,0,.35-.14.21h0Zm-.06,2.01c-.11.05-.25-.03-.15-.12.07,0,.11.05.15.12h0Zm.18-2.82c-.01.07-.03.21-.11.13-.05-.09.02-.13.11-.13Zm-.04-.31s.05-.13.09-.06c.03.06-.04.11-.09.06h0Zm.64-1.79c.03.06-.04.11-.09.06-.05-.07.06-.14.09-.06h0Zm-.16-.26s.07,0,.08.05c-.05.03-.13,0-.08-.05h0Zm-.06,1.07h0,0c-.07-.02-.14-.04-.14-.13-.15-.11.02-.29.14-.15.17.04.17.07.01.28h0Zm-.18-.84c.12.08.28.2.15.36-.16.17-.28-.22-.44.03-.02-.18.08-.16.17-.16-.04-.07-.14-.15.03-.17.05.02-.02-.16.08-.05h0Zm-.17-.57c.1.09.05.17-.03.24h0s0,0,0,0c.05.03.11.04.08.12-.02.04-.05.04-.08.02-.06-.05-.05-.09,0-.13h0,0c-.15-.07-.16-.38.03-.24h0Zm-.11-1.4c-.01.09-.03.13-.1.16,0-.08,0-.14.1-.16h0Zm-.09.64c.08.06-.03.18-.1.11-.08-.07.03-.22.1-.11h0Zm-.15.39c.19.1-.11.25-.19.12-.12-.13.13-.31.19-.13h0Zm-.07-1.45c.05-.02.1-.04.1.05-.05.05-.12,0-.1-.05h0Zm.15.8c.07.07-.03.19-.1.11-.07-.07.03-.19.1-.11h0Zm-.55-1.46s-.02-.07.01-.1c.08-.07.1.03.15.06h0s0,0,0,0c0-.01.01-.02.02-.03,0-.23.32-.09.25.06-.01.07-.08.13-.17.07-.06,0-.11-.02-.11-.1h0s-.09.1-.16.04h0Zm.13.31c-.04-.15.12-.08.18-.03,0-.14.09-.1.16-.07.17.13-.1.3-.2.12-.05-.03-.11.05-.15-.02h0Zm.02,3.67c.1-.1.14.09.23.05-.07.09-.14.14-.23.05-.03-.02-.03-.07-.01-.1,0,0,0,0,0,0h0Zm0,.3c.18-.08.29.24.15.34h0c.06.03.13.05.2.06.1-.05.08.04.08.08,0,.06,0,.13-.1.1h-.07c-.19.11-.11-.11-.18-.15-.17-.01-.2-.31-.07-.42h0Zm.04.83c-.03-.05-.12-.16-.02-.18.15-.04.2.13.31.21-.11.06-.22.1-.29-.03h0Zm.21.57s-.08.03-.11,0c-.03-.03-.03-.08,0-.11.03-.03.07-.03.11,0s.03.07,0,.11h0Zm-.3.03c.1.18-.07.09-.11.11-.06.03-.13.02-.18-.03-.06,0-.13-.02-.2.04.14-.2-.03-.39.15-.53.25-.18.64.15.35.4h0Zm-.76,3.5s-.06.1-.13.08c-.19-.05-.22-.14-.07-.27.02-.03.05-.07.1-.04.15.02.14.12.11.23h0Zm.14.65c.09.19-.05.34-.21.18-.14-.19.05-.28.21-.18h0Zm-.21-4.57c.11.06-.04.17-.12.12-.08-.08.04-.19.12-.13h0Zm-.05-.45c.09-.07.1.04.09.12-.09,0-.17-.04-.09-.12Zm.11.95s0-.06,0-.08c.05.02.07.04.07.1-.03,0-.07,0-.07-.02Zm-.04-2.19c0-.11.09-.11.18-.11.07-.02.08-.13.18-.1.11-.02.22-.04.15.14,0,.03,0,.05.01.07-.09.13-.12.35-.36.15-.11.01-.16-.05-.15-.15Zm.45-.31c-.14.03-.16-.07-.18-.17-.09-.21.04-.19.17-.17.23-.02.23.36,0,.34h0Zm.21.97c.05.03.02.07,0,.09-.14.17-.17-.17,0-.09h0Zm-.27-.12c-.11.16-.22-.05-.13-.15.08-.11.27.07.13.15h0Zm-.15.3c.11-.06.04.02.05.05.04.13.12-.04.17.02.4.03-.03.5-.1.1-.1.03-.25-.13-.12-.17h0Zm-.02.75s.07-.02.11.02c.04.13-.14.07-.11-.02h0Zm.49-2.31c-.08.08-.3-.14-.19-.23s.34.09.19.23h0Zm-.19-1.25s.07-.01.09.02c0,.01.01.02.01.03.02.05.24.01.06.14h0c-.04.16-.18.06-.13-.07h0,0c-.05-.04-.09-.08-.03-.13Zm0,.8s0,.1-.01.15c-.22.12-.18-.26.01-.15Zm-.21-.67s.06-.05.1-.02c.06.14-.24.18-.1.02h0Zm.06.52c-.06.1-.19-.04-.18-.14.07.03.17.04.18.14h0Zm-.11.43c-.06-.01-.13,0-.15-.08.08-.03.11.02.15.08h0Zm-.17-.68s-.06-.09,0-.12c.16-.11.14.28,0,.12h0Zm-.06.73c.09-.06.15,0,.22.04.15.37-.52.22-.22-.04h0Zm-.08.39s.06.02.07.05c.04.14-.21,0-.07-.05h0Zm-.15,1.05c.24.04-.07.31-.11.12-.02-.08,0-.15.11-.12h0Zm-.33,1.93c.09-.06.18-.07.23.05.14.29-.51.21-.23-.04h0Zm-.51,1.48s.17.02.11.08c-.04.06-.16-.02-.11-.08h0Zm.15,6.52c.11.12-.09.18-.2.1.07-.05.11-.13.19-.09h0Zm-.37-3.82c.05-.06.15.04.08.08-.07.07-.12-.02-.08-.08h0Zm.06,4.52c-.05.05-.11.03-.14-.03-.08-.08.1-.3.14-.14.05.06.06.12,0,.17h0Zm-.13-1.29c.14.19-.12.06-.1.15-.05-.09.04-.09.06-.13.02-.1-.11-.05-.13-.15.1,0,.19-.02.16.13Zm-.2-.55h.07c.01.11-.17.07-.07,0h0Zm-.16-1.03c.08.11-.07.17-.17.09.05-.06.08-.14.17-.09h0Zm-.35.86c.13-.04.09.07.11.11.04.14-.26.2-.21.04-.07-.11,0-.12.09-.15h0Zm-.24,2.36c.07,0,.12.02.06.1-.04.08-.05.25-.19.08-.03-.11.02-.17.13-.18h0Zm-.39,4.21c.1-.09.14.18,0,.06,0-.02-.02-.05,0-.06h0Zm.08.9c-.26.08-.19-.32-.12-.41.09-.12.35.03.33.19.06.2,0,.26-.21.22Zm.33-1.11c-.17.15-.36-.06-.2-.17.1-.1.26.1.2.17h0Zm-.25-3.14c-.04-.12.09-.15.13-.22.15-.18.45.09.33.28-.23.21-.39.19-.46-.06h0Zm.78,1.63c-.08.18-.17.19-.28.03-.03-.03-.06-.06-.02-.1.05-.2.35-.09.3.08h0Zm-.06-3.59c.03-.1.09-.18.21-.14.13.05.08.15.06.24-.02.13-.09.13-.19.08-.13-.02-.08-.11-.08-.18h0Zm.39,2.54c-.02.13-.11.09-.19.09-.13-.02-.09-.11-.07-.19h0c.03-.1.09-.14.18-.09h0c.12.03.09.12.08.19h0Zm.59-.93c-.1.14-.24.09-.38.09-.11,0-.11-.12-.18-.16-.16.34-.39-.17-.03-.06.03-.18-.04-.23.22-.29.17-.06.32-.07.4.13,0,.1.08.2-.03.28h0Zm.24-1.99c-.01.07-.05.12-.13.1-.11.03-.23-.01-.3-.1-.05-.07.03-.13.1-.17.08-.07.12-.02.17.05.09.02.2,0,.17.13h0Zm.06-1.73c-.17.04-.14-.13.01-.08,0,.03,0,.06-.01.08h0Zm-.07-2.51h0c-.08.05-.15.14-.26.07-.07-.01-.08.12-.17.08-.05-.1.1-.11.08-.2-.08-.13-.02-.54.2-.4.29-.12.38.4.15.45h0Zm.26.48c-.07.06-.16-.06-.08-.11.07,0,.18.05.08.11Zm.04-4.7c-.06.04-.2-.03-.12-.1.06-.08.18.04.12.1h0Zm.09,4.36s-.04,0-.06,0c-.04-.18.18-.08.06,0h0Zm.4,2.23c-.2.16-.4-.16-.16-.25.14-.17.33.16.16.25h0Zm.25-4.15c-.03.15-.12.17-.25.13-.08,0-.06-.09-.1-.12.03-.25.08-.27.3-.17.06.04.1.09.05.17h0Zm0-.67c-.11.18-.36-.05-.15-.15.15-.05.2,0,.15.15h0Zm.13-.41c-.13.12-.32-.13-.19-.23.13-.11.29.12.19.23h0Zm.16-.56c.02-.13.13.06.21.02.26-.1.46.35.19.46-.15.2-.17-.1-.28-.07-.3-.05-.14-.28-.12-.4h0Zm-1.01.25c.02-.13.13.06.21.02.26-.1.46.35.19.46-.15.2-.17-.11-.28-.07-.3-.05-.14-.28-.12-.4Zm1.06-3.55c.02-.13.13.06.21.02.26-.1.46.35.19.46-.15.2-.17-.1-.28-.07-.3-.05-.14-.28-.12-.4h0Zm-6.86,9.9c.02-.13.13.06.21.02.26-.1.46.35.19.46-.15.2-.17-.11-.28-.07-.3-.05-.14-.28-.12-.4h0Zm-.1,4.38c.02-.13.13.06.21.02.26-.1.46.35.19.46-.15.2-.17-.1-.28-.07-.3-.05-.14-.28-.12-.4h0Zm1.03,1.82c.02-.13.13.06.21.02.26-.1.46.35.19.46-.15.2-.17-.1-.28-.07-.3-.05-.14-.28-.12-.4h0Zm-2.7,2.59c.02-.14.13.06.21.02.26-.1.46.35.19.46-.15.2-.17-.11-.28-.07-.3-.05-.14-.28-.12-.4h0Zm8.6-14c-.12-.07.02-.22.12-.14.07.08-.04.25-.12.14Zm.44,1.91h0c0,.12-.1.1-.18.11h0c-.13,0-.11-.1-.12-.17,0-.13.09-.11.18-.1.1.01.15.06.12.17Zm.23,5.03c-.09.09-.22-.06-.14-.15.11-.08.26.05.14.15Zm.28-5.79c-.2.44-.74-.18-.3-.32.11-.06.16.06.24.09.08.06.12.14.06.23Zm.09-.79c.15-.18.23.04.2.16-.08,0-.29-.06-.2-.16h0Zm.52,2.07c-.28.16-.44-.06-.43-.34-.02-.1.09-.13.12-.21-.37-.1.11-.42.05-.04.19,0,.22-.08.32.16.09.16.13.31-.07.42h0Zm-2.9-2.35c-.28.16-.44-.06-.43-.34-.02-.1.09-.13.12-.21-.37-.1.11-.42.05-.04.19,0,.22-.08.32.17.09.16.13.31-.07.42h0Zm-.37,4.42c-.28.16-.44-.06-.43-.34-.02-.1.09-.13.12-.21-.36-.1.11-.42.05-.04.19,0,.22-.08.32.17.09.16.13.31-.06.42h0Zm3.49-4.07c-.06.12-.38.08-.27-.1.04-.07.08-.16.19-.07.07.04.15.09.09.17Zm.15-.25c-.21.14-.2-.23,0-.08.01.03.05.05,0,.08h0Zm-8.59,6.13c-.07.1-.16.12-.27.1v.02s-.09.03-.13.03c-.03.08-.02.15-.01.23.04,0,.08.02.1.06.15,0,.05.23-.05.11-.12-.02-.13-.15-.18-.24-.07-.05-.19-.06-.14-.2.02-.21.18-.05.3-.07-.07-.17.05-.24.17-.3.08.02.19-.1.23,0,.03.08.03.18-.02.25Zm.56-1.14c.1-.07.17.1.07.13-.08.08-.15-.1-.07-.13h0Zm-.28-.22c-.11.1-.25-.04-.18-.16.12-.07.33.08.18.16h0Zm-1.14,5.01c-.11.1-.25-.04-.18-.15.12-.07.33.08.18.15Zm.48.32c-.11.1-.25-.04-.18-.15.12-.07.33.08.18.15h0Zm.72-5.87c-.05-.11-.24-.11-.18-.27.1-.18.27.01.26.15.16.05,0,.28-.08.12Zm.09,1.23c-.09-.09.04-.27.15-.17.05.1-.03.3-.15.17h0Zm.63,6.5c-.02.18-.25.15-.23-.03,0-.16.27-.11.23.03Zm-.3-.61c0-.07.08-.15.15-.06.02.09-.09.13-.15.06h0Zm1.02-.66c-.06.09-.08.27-.22.19-.09-.05-.13-.12-.07-.22l.15-.05s.16-.05.14.08Zm-.37-1.75c.15-.11.34.07.16.18-.13.14-.34-.09-.16-.18Zm-.04,2.73c.1-.07.18.07.07.12-.1.08-.18-.07-.07-.12Zm-.3-1.91c.31-.1.12.53-.08.22-.05-.1-.04-.19.08-.22h0Zm.15.62c-.06.04-.09-.04-.1-.09l.1.02s.01.06,0,.06Zm-.05-2.34s-.01.1-.08.09-.03-.07-.05-.11c-.02-.08-.12-.05-.13-.12,0-.05.05-.05.08-.04.12-.14.34.05.18.17h0Zm-.01-1.04c.08-.04.11.06.03.09-.06.02-.12-.11-.03-.09h0Zm-.23.27c.05-.06.11-.04.15,0,.09.08-.02.1-.05.14.15.16-.1.22-.05.03-.08-.05-.1-.1-.04-.18h0Zm-.5.11c.07-.08.16-.1.25-.02.19-.17.2.32.03.1-.08.14-.38.1-.28-.08h0Zm.37.98c-.08.06-.18-.07-.1-.13.07-.06.18.07.1.13Zm-.4-.59c.07.03.2.07.11.13-.09.03-.12-.04-.11-.13Zm-.01.75c.13-.15.27-.14.41.04.19-.07.07.08.09.13.02.06,0,.13-.06.17-.01.06-.04.12,0,.21-.17-.17-.39-.04-.5-.24-.05-.1-.03-.23.05-.31h0Zm.35.81s-.06,0-.08-.01c.03-.05.05-.06.11-.05-.01.03-.02.06-.03.06h0Zm-.02.9c-.09.09-.24-.06-.13-.14.08-.07.22.07.13.14h0Zm-.48-.92c.08-.09.16.06.1.14-.09.07-.18-.07-.1-.14Zm-.06-.25s0-.07.04-.11c.13-.02.04.15-.04.11h0Zm.11-.97c.04.12.07.23-.07.28-.05.02-.17.09-.19,0-.01-.15.17-.17.26-.27h0Zm-.16,1.58c-.07.1-.17-.05-.09-.1.09-.06.13.02.09.1h0Zm-.08-2.01c.07-.02.1.05.05.1-.04,0-.11-.07-.04-.1h0Zm-.53.45c.1-.05.17-.02.23.07.04-.06.07-.12.09-.19-.03-.11.05-.07.09-.07.06,0,.12.03.08.12,0,.02,0,.05-.01.07.07.21-.13.09-.18.15-.04.17-.34.14-.43,0,0-.09.02-.16.13-.16h0Zm.17,4.49c-.15.06-.26.07-.18-.15.02-.14.17-.11.23-.19-.02-.05.02-.08.05-.11.06-.17.27.03.16.12-.03.05,0,.15-.11.1l-.04.03c.05.11-.02.16-.1.19h0Zm-.79-.92c.07-.12.1.09.18.03-.05-.05-.05-.12-.01-.18-.19-.22.2-.34.17-.19.06.06.12.11.02.18,0,.05,0,.1.05.13.15-.05.28.01.18.19.01.05,0,.09-.04.13h0c-.05.07-.11.03-.17.02-.12.11-.26.03-.4.02l.1-.24h0s-.11-.05-.09-.09Zm.22-1.51c-.09.09-.12-.14-.02-.06,0,.02.02.05.02.06h0Zm.05.06c.05,0,.06.05.04.09.01.05-.02.11-.07.13-.09,0-.05-.22.03-.21Zm.36-1.52c.09-.39.49.12.08.12.01.1-.17.22-.19.09-.04-.11.03-.03.06-.04.14-.02-.02-.12.05-.17h0Zm.31,2.6c-.16.12-.19-.08-.08-.18.13-.1.22.13.08.18h0Zm.01.44c.06.07.01.13,0,.2-.04.02-.08.04-.1-.01-.02-.06-.08-.13,0-.19.03-.03.07-.03.1,0,0,0,0,0,0,0h0Zm.01-2.44c-.13.06-.18-.17.03-.1-.02.04-.02.08-.04.1h0Zm-.31,2.91c-.06.03-.14,0-.17-.06.09-.04.12.03.17.06h0Zm.38-.8c-.1.08-.13-.1.04-.07-.02.04-.03.06-.04.07Zm-.62-2.96s.07,0,.09.02c.15.16-.2.14-.09-.02h0Zm-.03.85c.02.07.03.14-.07.14-.23.04-.04-.38.07-.14h0Zm-.11-1.33c.07.09.12.16.02.23-.03.03-.07.02-.1,0,0,0,0,0,0,0-.08-.12.11-.12.09-.22h0Zm-.16.68c.07-.06.1,0,.14.04.2.25-.37.16-.14-.04h0Zm-.21,1.45c0-.21.25,0,.13.08-.06.03-.12,0-.13-.08Zm-.02.89c.07-.03.11.09.04.12-.09.02-.14-.1-.04-.11h0Zm-.27-.86c.1-.06.21.09.1.15-.1.08-.2-.07-.1-.15h0Zm-.07,2.11s.05-.11.04-.17c-.03-.04-.02-.11.02-.14.04-.03.09-.03.13,0,.11.11-.09.19-.06.32.01.13-.21.1-.13-.02h0Zm-.45.38c.13-.08.13.05.18.11.03.02.02.05,0,.07-.04.14.13.14.17.23.03-.08.11-.14.19-.14,0-.16.28,0,.14.09,0,.01,0,.02.02.03.12-.12.26.06.09.12-.08.06-.09.21-.24.17-.12.05-.16-.06-.23-.11-.17.19-.59-.04-.28-.23-.06-.11-.23-.24-.05-.33h0Zm.73-2.59c.13-.08.13.05.18.11.03.02.02.05,0,.07-.04.14.13.14.17.23.03-.08.11-.14.19-.14,0-.16.28,0,.14.09,0,.01,0,.03.02.03.12-.12.26.06.09.12-.08.06-.09.21-.24.17-.12.05-.16-.06-.23-.11-.17.19-.59-.04-.28-.23-.07-.11-.23-.24-.05-.33Zm6.45-9.91c.13-.08.13.05.18.11.03.02.02.05,0,.07-.04.14.13.14.17.23.03-.08.11-.14.19-.14,0-.16.28,0,.14.09,0,.01,0,.03.02.03.12-.12.26.06.09.12-.08.06-.09.21-.24.17-.12.05-.16-.06-.23-.11-.17.19-.59-.04-.28-.23-.06-.11-.23-.24-.05-.33Zm-.3,2.42c.13-.08.13.05.18.11.03.02.02.05,0,.07-.04.14.13.14.17.23.03-.08.11-.14.19-.14,0-.16.28,0,.14.09,0,.01,0,.02.02.03.12-.12.26.06.09.12-.08.06-.09.21-.24.17-.12.05-.16-.06-.23-.11-.17.19-.59-.04-.28-.23-.06-.11-.23-.24-.05-.33h0Zm1.95-3.09c.13-.08.13.05.18.11.03.02.02.05,0,.07-.04.14.13.14.17.23.03-.08.11-.14.19-.14,0-.16.28,0,.14.09,0,.01,0,.03.02.03.12-.12.26.06.09.12-.08.06-.09.21-.24.17-.12.05-.16-.06-.23-.11-.17.19-.59-.04-.28-.23-.07-.11-.23-.24-.05-.33Zm-.26,2.61c.13-.08.13.05.18.11.03.02.02.05,0,.07-.04.14.13.14.17.23.03-.08.11-.14.19-.14,0-.16.28,0,.14.09,0,.01,0,.03.02.03.12-.12.26.06.09.12-.08.06-.09.21-.24.17-.12.05-.16-.06-.23-.11-.17.19-.59-.04-.28-.23-.07-.11-.23-.24-.05-.33h0Zm16.79-1.35c.13-.08.13.05.18.11.03.02.02.05,0,.07-.04.14.13.14.17.23.03-.08.11-.14.19-.14,0-.16.28,0,.14.09,0,.01,0,.03.02.03.12-.12.26.06.09.12-.08.06-.09.21-.24.17-.12.05-.16-.06-.23-.11-.17.19-.59-.04-.28-.23-.07-.11-.23-.24-.05-.33h0Zm-16.91-4.44c.13-.08.13.05.18.11.03.02.02.05,0,.07-.04.14.13.14.17.23.03-.08.11-.14.19-.14,0-.16.28,0,.14.09,0,.01,0,.03.02.03.12-.12.26.06.09.12-.08.06-.09.21-.24.17-.12.05-.16-.06-.23-.11-.17.19-.59-.04-.28-.23-.07-.12-.23-.24-.05-.33Zm15.47-.86c.13-.08.13.05.18.11.03.02.02.05,0,.07-.04.14.13.14.17.23.03-.08.11-.14.19-.14,0-.16.28,0,.14.09,0,.01,0,.03.02.03.12-.12.26.06.09.12-.08.06-.09.21-.24.17-.12.05-.16-.06-.23-.11-.17.19-.59-.04-.28-.23-.07-.11-.23-.24-.05-.33Zm7.31,6.28c.13-.08.13.05.18.11.03.02.02.05,0,.07-.04.14.13.14.17.23.03-.08.11-.14.19-.14,0-.16.28,0,.14.09,0,.01,0,.03.02.03.12-.12.26.06.09.12-.08.06-.09.21-.24.17-.12.05-.16-.06-.23-.11-.17.19-.59-.04-.28-.23-.06-.11-.23-.24-.05-.33Zm2.06-2.51c.13-.08.13.05.18.11.03.02.02.05,0,.07-.04.14.13.14.17.23.03-.08.11-.14.19-.14,0-.16.28,0,.14.09,0,.01,0,.02.02.03.12-.12.26.06.09.12-.08.06-.09.21-.24.17-.12.05-.16-.06-.23-.11-.17.19-.59-.04-.28-.23-.06-.11-.23-.24-.05-.33Zm.06,1.01c.13-.08.13.05.18.11.03.02.02.05,0,.07-.04.14.13.14.17.23.03-.08.11-.14.19-.14,0-.16.28,0,.14.09,0,.01,0,.03.02.03.12-.12.26.06.09.12-.08.06-.09.21-.24.17-.12.05-.16-.06-.23-.11-.17.19-.59-.04-.28-.23-.06-.11-.23-.24-.05-.33Zm5.33,10.85c.13-.08.13.05.18.11.03.02.02.05,0,.07-.04.14.13.14.17.23.03-.08.11-.14.19-.14,0-.16.28,0,.14.09,0,.01,0,.03.02.03.12-.12.26.06.09.12-.08.06-.09.21-.24.17-.12.05-.16-.06-.23-.11-.17.19-.59-.04-.28-.23-.07-.11-.23-.24-.05-.33Zm-38.3,2.49c-.14.16-.24-.08-.13-.17.1-.09.2.12.13.17Zm-.33,2.47c-.09.07-.11-.04-.09-.11.1-.08.19.05.09.11h0Zm-.39-.87s.06,0,.11,0c0,.22-.19.07-.11,0h0Zm-.19.81c-.1.09-.1-.16.02-.08,0,.02,0,.06-.02.08h0Zm.31.25c-.11.08-.26-.12-.12-.2.15-.1.25.11.12.2h0Zm-.01-2.11c-.05-.1.09-.18.15-.09.09.11-.07.15-.15.09Zm.33,4.09c-.09.12-.27-.03-.14-.13.09-.08.24.03.14.13h0Zm.18-1.53c-.05-.01-.06-.05-.04-.09-.17.13-.17-.19-.09-.28.03-.1,0-.22.09-.31.06.15.3.08.33.27.08.27-.06.46-.29.41h0Zm-.7.83c-.05-.01-.06-.05-.04-.09-.17.13-.17-.19-.09-.28.03-.1,0-.22.09-.31.06.15.31.08.33.27.08.27-.06.46-.29.41Zm3.37-7.77c-.05-.01-.06-.05-.04-.09-.17.13-.17-.19-.09-.28.03-.1,0-.22.09-.31.06.15.3.08.33.27.08.27-.06.46-.29.41h0Zm-2.67,5.45c.09-.06.12.1.05.13s-.12-.1-.05-.13Zm.67,1.23c-.09-.01-.11-.04-.09-.12.1,0,.11.03.09.12h0Zm.06-1.61s-.07,0-.1-.03c-.12,0-.25-.04-.35.01,0,.06-.03.08-.08.06-.35.16-.34-.53.05-.35.2-.15.31.08.47.14.05.05.06.12,0,.17Zm0-.77c-.18.06-.07-.28.04-.17,0,.06.03.13-.04.17h0Zm.05-1.65c-.06-.02-.07-.05-.05-.11.02-.1.05-.11.13-.04.07.06.07.08-.02.09,0,.06-.03.06-.07.05h0Zm.09,1.95c.05-.06.1-.03.16-.02,0,.12-.08.19-.18.11-.06-.04.02-.06.02-.09h0Zm.17.73c.05.09-.12.17-.05-.01h.05Zm-.1,1.49c-.17.04-.06-.22.01-.05,0,.02.03.04-.01.05h0Zm.21-.27c-.38.15-.28-.45.04-.2.02.07.05.16-.04.2Zm.17-1.16c-.17.11-.08-.18.03-.1.02.03,0,.08-.02.1,0,0,0,0,0,0h0Zm.41-.36c-.18.02-.24-.28-.05-.31.23-.07.28.32.05.31h0Zm-.05-.65c-.14.12-.29.21-.46.04-.05.16-.23.06-.11-.06-.02-.13-.08-.23-.02-.35l-.23-.32c-.03-.37.42-.63.63-.31.05-.05.04-.17.16-.15.14.02.1.28-.06.21-.09.12-.03.31-.17.39h0s0,.02,0,.03h0c.15.02.21.14.29.24.07.05.21,0,.2.16-.03.13-.09.2-.23.12h0Zm.25-3.03c-.17-.02-.2-.27,0-.25l.1-.2c.13-.07-.13-.23.02-.24s.36-.02.45.2h0c0-.08.05-.13.12-.13,0,0,.02,0,.02,0,0-.07.03-.14.12-.09h0c.15.06.31.33.06.33h0c-.12.1-.24.05-.37.02-.16.14-.3-.11-.4.19.07.15-.02.16-.13.16Zm.41.14c-.08-.07.04-.17.1-.09.08.07-.05.14-.1.09h0Zm.05,1.18c-.07.01-.1-.05-.04-.08s.1.04.04.08h0Zm-.13-.49c-.07.05-.18.06-.11-.06.05-.08.21,0,.11.06h0Zm-.14,2.84c.06-.08.17.04.11.11-.06.08-.18-.04-.11-.11h0Zm.19.37c-.08.09-.19-.06-.11-.13.06-.06.18.07.11.13h0Zm.01-2.31c-.1.06-.32-.02-.21-.14.1-.11.29,0,.21.14h0Zm.29,1.32c-.06.03-.13.09-.2.03-.13-.12.11-.26.21-.19.05.07.05.13,0,.16h0Zm23.88-13.31c-.05,0-.06-.03-.05-.07-.13.15-.18-.14-.13-.23,0-.1-.04-.2.02-.29.08.12.28.02.34.18.11.22.03.42-.18.41Zm.69.72c-.05,0-.06-.03-.05-.07-.13.15-.18-.14-.13-.23,0-.1-.04-.2.02-.29.08.12.28.02.34.18.12.22.03.42-.18.41Zm-2.7-8.34c-.05,0-.06-.03-.05-.07-.13.15-.18-.14-.13-.23,0-.1-.04-.2.02-.29.08.12.28.02.34.18.12.22.03.42-.18.41h0Zm2.12,9.01c-.06.12-.24.02-.15-.09.07-.09.22-.02.15.09Zm-.38-2.71c.13-.1.11.21,0,.09-.02-.02-.02-.06,0-.09,0,0,0,0,0,0Zm-.05.79c-.07.08-.1-.01-.1-.08.07-.09.17,0,.1.08h0Zm.84.09s.01.05.02.09c-.09,0-.11-.01-.1-.09.03,0,.07-.01.08,0h0Zm-.18-1.78c.03-.06.09-.05.14-.05.02.1-.03.19-.14.13-.06-.03,0-.06,0-.08h0Zm-.03.44s-.06,0-.09,0c-.1.03-.23.01-.31.07.01.05,0,.07-.06.07-.28.2-.4-.42-.02-.32.15-.17.29.01.44.04.05.04.08.09.04.15h0Zm-.21-.84s.05-.02.07,0c.11.23-.2.22-.07,0Zm-.24-1.4c0-.09.02-.11.11-.06.07.04.07.05,0,.08.03.1-.16.07-.11-.03Zm-.2-1.82s.06.03.05.07c.02.05,0,.1-.04.12-.08.03-.08-.19,0-.19h0Zm-.14-.09s.03,0,.05,0c.09.09-.08.11-.05,0h0Zm0,.87c.03.08-.08.11-.11.04-.02-.05.09-.11.12-.04h0Zm-.04,1.13c.02.15-.2.1-.1-.03.04-.11-.1-.19,0-.27.09-.06.19.07.11.15-.02.05-.02.1,0,.15h0Zm-.06-2.01s.06.08.02.11c-.14.12-.19-.25-.02-.11h0Zm-.2,2.5s.03.03.02.06c0,.13.14.1.19.17.01-.08.07-.14.14-.16-.03-.14.25-.04.14.06,0,.01,0,.02.02.03.08-.13.24,0,.1.09-.06.07-.04.2-.18.19-.1.07-.15-.03-.23-.06-.12.2-.53.07-.29-.15-.08-.09-.25-.17-.1-.29.1-.1.13.02.19.06h0Zm.18.71c-.1-.06-.03-.28.09-.18.11.08-.02.25-.09.18h0Zm.06,2.42c-.08.09-.26-.06-.15-.16.11-.11.24.06.15.16h0Zm-.38-1.86s-.02-.08.01-.11c.03-.02.07-.02.1,0,.1.08-.04.15-.11.1h0Zm.06,1.7c-.08.1-.12-.13,0-.07,0,.02,0,.05,0,.07h0Zm.02-.75s.05-.02.09-.03c.04.2-.15.1-.09.03h0Zm-1.07-.21c-.23,0-.23-.42.02-.37.01,0,.02-.01.02-.02-.03-.08-.15-.08-.14-.18,0-.09,0-.18.12-.2.06,0,.13-.06.14.06.14.12.06.2-.04.32.03.04.07.06.06.12.02.04.02.09,0,.12-.04.08-.04.2-.18.16h0Zm-.8.86c-.23,0-.23-.42.02-.37.01,0,.02-.01.02-.02-.03-.08-.15-.08-.14-.18,0-.09,0-.18.12-.2.06,0,.13-.06.14.06.14.12.06.2-.04.32.03.04.07.06.06.12.02.04.02.09,0,.12-.04.08-.04.2-.18.16h0Zm1.05-2.39c-.23,0-.23-.42.02-.37.01,0,.02-.01.02-.02-.03-.08-.15-.08-.14-.18,0-.09,0-.18.12-.2.06,0,.13-.06.14.06.14.12.06.2-.05.32.03.04.07.06.06.12.02.04.02.09,0,.12-.04.08-.04.2-.18.16h0Zm-.24-3.2c-.23,0-.23-.42.02-.37.01,0,.02-.01.02-.02-.03-.08-.15-.08-.14-.18,0-.09,0-.18.12-.2.06,0,.13-.06.14.06.14.12.06.2-.04.32.03.04.07.06.06.12.02.04.02.09,0,.12-.04.08-.04.2-.18.16h0Zm.24-2.96c-.23,0-.23-.42.02-.37.01,0,.02-.01.02-.03-.03-.08-.15-.08-.14-.18,0-.09,0-.18.12-.2.06,0,.13-.06.14.06.14.12.06.2-.05.32.03.04.07.06.06.12.02.04.02.09,0,.12-.04.08-.04.2-.18.16h0Zm-.19,8.68c-.06.06-.16-.07-.09-.11.06-.04.15.06.09.11Zm.83-5.93c-.11.12-.24-.08-.13-.16.1-.1.22.07.13.16h0Zm.06,2.37c.05.16-.11.15-.09-.01.04,0,.09,0,.09.01h0Zm-.19-2c.07.18-.19.11-.27.2h0l-.14.06c0-.08.05-.15.12-.18,0-.14.24-.24.29-.08h0Zm-.4-1.04c-.19.09-.18-.03-.16-.15,0-.11.05-.15.15-.16.11-.02.15.05.16.14.03.13-.06.15-.15.17Zm-.09.87s.06.08.04.12c-.02.05-.08.06-.12.04-.01,0-.02-.02-.03-.03-.04-.03-.05-.08-.02-.12.03-.04.08-.05.12-.02,0,0,0,0,0,0Zm-.44,1.33c-.38-.13.25-.72.2-.35h0s.09.06.07.12c.14.14-.03.22-.11.32h0l-.16-.08Zm.16-2.16c-.01.05,0,.11-.07.14-.03-.07.02-.11.07-.14h0Zm.04,1.39s.04-.04.07-.03c.15.12-.12.19-.07.03h0Zm-.05.86c.02.05.12.06.08.16-.08-.04-.08-.1-.08-.16h0Zm.07,1.73c.06-.06.1.01.1.07-.05,0-.12,0-.1-.07h0Zm.05-4.27c-.05.06-.11.11-.18.05-.06-.05-.02-.11.01-.16.03-.11.32-.04.17.11h0Zm-.03-.93c.09.05-.05.17-.1.08h0s0,0,0,0c-.06.07-.12.15-.22.09-.11-.09.12-.26.22-.09h0s0,0,0,0c.02-.04.03-.1.1-.07Zm-.03-.38s.03-.01.05-.02c.06.1-.07.12-.06.02h0Zm-.19,1.38s.03.09,0,.12c-.03.03-.09.03-.12,0-.09-.1.02-.18.12-.11h0Zm-.08,1.42c-.01.05-.02.14-.1.15-.09.01-.07-.11-.14-.13-.04-.02-.05-.06-.03-.1,0-.01.01-.02.02-.03.04-.05.08-.05.12,0,.02.07.15.01.13.11Zm-.24,1.87c.05-.16.14-.2.28-.1,0,0,0,0,0,0h0c.07-.07.13-.11.19.01-.07.05-.13.03-.19-.01h0c-.01.13.01.29-.2.18-.11.16-.26-.06-.07-.07h0Zm.36.13c.1-.03.1.08.02.2.02-.1-.07-.13-.02-.2h0Zm-.26.51c.07-.08.19.01.13.09-.05.1-.22,0-.13-.08h0Zm0,.72c.08-.13.28-.06.29.08.07.26-.44.2-.29-.07h0Zm.19,1.66c.09-.03.08.05.07.09,0,.08-.07.07-.13.06-.15.04-.05-.17.06-.14Zm.33-.03s.08-.03.12-.02c.09.15-.22.19-.12.02h0Zm.18.55s-.03.08-.07.09c0-.02-.01-.05-.02-.06.03-.04.05-.05.08-.03h0Zm-.08-3.4s-.03-.06-.05-.09c-.1-.02-.05-.11-.07-.17l.1.02c.07-.06.08.02.12.04.03.05.14.07.1.13s-.08-.02-.12-.03c-.05,0-.02.1-.08.09h0Zm.19.18c.06-.09.1,0,.16.03.08-.16.22.12.04.08-.04-.07-.28.03-.2-.11h0Zm.24-1.09s-.02-.07.01-.09c.02-.02.05-.02.07,0,.08.03-.02.16-.08.09h0Zm.1,4.6s.06-.04.09,0c.06.06-.06.18-.12.11-.04-.05,0-.08.02-.11h0Zm.26-5.65c.08.07-.05.2-.12.12s.05-.19.12-.12Zm-.3-1.48c.12.08.32.09.14.32.03.2-.28.18-.23-.01-.02-.06-.12-.07-.1-.16-.02-.1-.04-.2.12-.14h.07Zm-.22-2.21s.05-.07.08-.03c.07.05-.02.24-.1.18-.06-.04-.03-.1.02-.15h0Zm.02.99c.16.14-.19.26.04.39-.16.02-.15-.07-.15-.15-.06.04-.13.13-.16-.03.01-.05-.14.03-.05-.07.07-.11.17-.26.31-.15h0Zm-.23-.14c-.06.05-.13-.05-.06-.08.06-.03.1.03.06.08h0Zm-.33-1.45s0-.05,0-.07c-.12-.16.27-.24.22-.04h0s.15.04.1.13c-.02.05-.09.08-.14.06-.02,0-.03-.02-.04-.03-.03,0-.05-.06-.09-.02.08.11-.13.15-.13.05,0-.05.01-.11.09-.08h0Zm-.48.92c0-.17.24-.11.22.05.07.04.2-.04.21.12-.02.09-.03.18-.16.1-.08-.04-.04-.13-.07-.18-.09.03-.16.02-.2-.08h0Zm.28.55c.09.11-.13.18-.11.03.04-.05.08-.05.11-.03h0Zm-.13,1.77c.07.02.13.07.06.16,0,.08-.05.1-.12.08-.18.04-.09-.31.06-.24h0Zm-.05-.2c-.02.07-.09.13-.16.12,0-.07.1-.25.16-.12h0Zm-.2-.79c.08-.18.23.09.12.17-.11.11-.28-.11-.12-.17h0Zm-.15.92c.07-.04.19.02.1.09-.04.02-.08.06-.11,0-.02-.03-.03-.07.01-.1h0Zm-.17-.33s0,0,0,0h0c-.05.13-.2-.02-.06-.06.04-.02,0-.21.13-.06h0c.14.03.05.16-.06.11h0Zm0,.96c.02-.09.07-.17.14-.23h0s.06,0,.1.02c.1-.05.14-.02.15.09.08.15-.05.14-.12.18l-.05.02c.03.37-.52.22-.22-.08h0Zm.15.88h0c.12,0,.06.18-.04.13-.1.05-.11-.02-.1-.09.01-.11.08-.06.14-.04h0Zm-.07-.28h.11c0,.11-.13.1-.11,0h0Zm-.34.49c.05-.05.09,0,.14.02.15.17-.29.12-.14-.02h0Zm-.25-.3s.17,0,.11.06c-.04.06-.16,0-.11-.06h0Zm-.03,1c-.1.19-.4-.12-.2-.33.06-.08.17-.09.24-.04,0,0,.02.01.03.02.09.12-.03.23-.07.34h0Zm.36.08s-.02.02-.03.03c-.07.02-.19.22-.19-.05-.16-.17.23-.26.22-.05.04.09.14-.03.19.05h0c.08-.12.06-.14.21-.16.11-.11.18.1.08.15-.09.04-.19.11-.29.01h0s0,0,0,0c-.06.03-.12.07-.19,0h0Zm-.44,1.21s.11-.07.13-.12c.08-.27.11-.02.15.02.18.05.12-.25.31-.14h0c.14-.22.27-.12.4,0,.14.26-.29.4-.37.14-.04-.05-.09-.08-.12,0,.11.08.17.36.03.44-.12.07-.22.19-.37.09-.05-.01-.13.09-.16-.02-.05-.14-.13-.29,0-.43h0Zm.82.29c-.13.06-.17-.12,0-.09,0,.04,0,.08,0,.09Zm-.09.3c.01-.17.09-.1.16-.04.11-.02.13.05.12.12-.01.11-.1.07-.17.06h0c-.07.07-.11.21-.24.07-.11-.17.09-.15.14-.22h0Zm-.39,1.44c-.07.07-.22-.03-.13-.11.09-.1.25,0,.13.11h0Zm-.19-1.3c-.08.11-.16-.05-.1-.13s.18.05.1.13Zm-.48.46h0,0c.03.06.06.12.1.2-.11.01-.16-.06-.19-.13-.02-.05.06-.04.09-.07h0s-.1-.05-.08-.12c.05-.11-.19-.01-.11-.15-.01-.04,0-.08.03-.08.1-.03.1.09.14.15.08-.02.1.03.11.09.02.08-.06.08-.1.1h0Zm-.2-1.31c.08.05.4-.08.27.11-.09.11-.36.06-.27-.11h0Zm-11.22,6.66c.08-.13.24.02.17.12-.06.11-.24-.04-.17-.12Zm-.27-2.38c.07.06.15.09.13.18-.1.13-.19-.06-.13-.18Zm-.62-.02c-.06-.05-.04-.1,0-.15.06-.1.31.05.17.12-.05.06-.11.08-.17.03Zm6.55,28.02h-12.94l.34-.59h12.6v.59Zm0-.86h-12.45l.46-.79h11.99v.79Zm0-1.07h-11.84l.49-.86h11.34v.86Zm0-1.13h-11.19l.49-.86h10.69v.86Zm0-1.13h-10.54c.04-.08.46-.81.49-.86h10.04v.86Zm0-1.13h-9.89c.14-.24.36-.62.49-.86h9.4v.86Zm0-1.13h-9.24s.48-.85.49-.86h8.75v.86Zm0-1.41v.28h-8.59l.49-.86h8.15c-.03.19-.05.39-.05.59h0Zm.1-.86h-8.05l.49-.86h7.88c-.15.27-.26.56-.33.86h0Zm.49-1.13h-7.89l.49-.86h8.18c-.31.24-.57.54-.78.86h0Zm3.06-1.66c-.67,0-1.32.18-1.89.53h-8.41l.49-.86h19.56l.5.86h-8.35c-.57-.35-1.22-.53-1.89-.53h0Zm-6.85-3.74h14.63l.5.86h-16.64c.08-.15.4-.71.49-.86h1.02Zm-.87-.27l7.63-13.36,7.7,13.36h-15.34Zm1.78,1.41h14.36l.5.86h-17.94l.49-.86h2.59Zm15.02,1.14l.5.86h-19.25l.49-.86h18.26Zm-6.65,9.94c-.63.09-.7-.89-.07-.9.54-.01.61.83.07.9Zm-.17-7.67h8.12l.5.86h-7.83c-.21-.33-.48-.62-.78-.86Zm.95,1.13h7.83l.5.86h-8c-.07-.3-.18-.59-.33-.86Zm8.48,1.13c.03.05.46.79.5.86h-8.55c0-.28,0-.59-.05-.86h8.1Zm1.02,6.54h-9.07v-.86h11.32l.5.86h-2.75Zm2.91.27l.46.79h-12.44v-.79h11.98Zm-2.91-1.41h-9.07v-.87h10.67l.5.86h-2.09Zm0-1.13h-9.07v-.86h10.02l.5.86h-1.44Zm.41-1.13h-9.48v-.86h9.36l.5.86h-.38Zm-.36-1.13h-9.12v-.86h8.71l.5.86h-.09Zm-.05,6.47h-9.07v-.59h12.59l.34.59h-3.86Zm5.49,0h-.52c-5.77-10.02-11.99-20.79-17.77-30.82-5.55,9.71-12.1,21.19-17.61,30.82h-.64l18.32-31.78c5.96,10.37,12.32,21.43,18.27,31.78h-.05Z"/></g><text class="cls-2" transform="translate(70.75 40.44) rotate(-7.47)"><tspan x="0" y="0">Holi</tspan></text><text class="cls-1" transform="translate(96.47 47.49)"><tspan x="0" y="0">Daze</tspan></text></g></svg>