<?xml version="1.0" encoding="UTF-8"?><svg id="Layer_2" xmlns="http://www.w3.org/2000/svg" viewBox="0 0 43.08 8.75"><defs><style>.cls-1{fill:#f4f4f4;}.cls-2{fill:#ffebde;}.cls-3{isolation:isolate;}</style></defs><g id="Layer_2-2"><g id="Layer_1-2"><g class="cls-3"><g class="cls-3"><path class="cls-1" d="m4.08,4.79c-.07.03-.17.08-.31.15s-.29.14-.47.22-.37.17-.56.26-.38.18-.56.26-.34.16-.48.22-.25.11-.31.14l.02,2.34s-.03.06-.08.12-.1.1-.13.11c-.12.03-.21-.02-.26-.15s-.09-.3-.11-.5-.04-.43-.05-.66-.04-.45-.08-.64-.12-.35-.22-.45-.25-.13-.43-.06c0-.02-.02-.04-.03-.08s-.02-.07-.02-.08c0-.1.03-.17.08-.2s.11-.06.17-.09.12-.06.17-.11.08-.12.08-.24c0-.31-.01-.62-.04-.93s-.05-.61-.08-.93-.06-.62-.08-.93-.04-.62-.04-.92v-.55c.02-.06.06-.1.1-.12s.09-.02.13-.02c.04,0,.09,0,.14.02.05.02.07.05.07.12l.47,3.93s.01.05.04.12.05.1.06.11h.11l.19-.05c.09-.02.26-.08.49-.18s.56-.25.97-.45.97-.47,1.68-.81l.05-2.66s.02-.1.05-.16.07-.11.12-.16.09-.08.14-.11.09-.04.14-.04c.07,0,.13.01.17.04s.06.09.06.2c0,.02-.02.06-.05.12s-.05.1-.06.11c0,.03,0,.09,0,.16s0,.16,0,.25v.43c0,.66,0,1.33.02,1.99s.05,1.32.09,1.98c0,.08.02.22.04.42s.04.41.06.64.05.44.07.65.04.35.06.44c0,.02,0,.04.01.07s.02.07.04.11.03.07.04.11.02.05.02.06v.11s-.04.04-.07.06-.06.05-.1.08-.07.04-.1.06-.05.03-.07.03c-.11.02-.2-.02-.27-.14s-.12-.26-.16-.42c-.04-.16-.07-.32-.08-.47s-.03-.27-.04-.33c0,0,0-.07,0-.18s0-.25-.02-.42-.02-.36-.03-.57-.03-.42-.04-.63-.03-.41-.05-.6-.04-.34-.05-.47l-.61.27Z"/><path class="cls-1" d="m15.59,8.65c-.08-.56-.13-1.11-.15-1.66s-.03-1.1-.03-1.66,0-1.11.02-1.65.02-1.09.01-1.64c0-.06.02-.11.07-.13s.1-.04.16-.04c.07,0,.13.03.19.08s.1.11.14.19.07.15.09.22.03.13.03.18c.05,1.12.08,2.05.09,2.79s.02,1.35,0,1.8-.04.79-.08,1.01c-.04.22-.08.37-.13.45s-.12.11-.19.09-.15-.03-.23-.05Z"/><path class="cls-1" d="m16.69,1.75c0-.09.03-.15.08-.18s.12-.04.21-.04c.05,0,.13.03.22.1s.16.16.22.25.09.18.1.26c0,.09-.05.15-.18.16h-.06c-.12,0-.21,0-.29-.02s-.14-.04-.18-.08-.07-.09-.09-.16-.03-.17-.03-.29Zm.6,2.94v-.18c0-.09,0-.18,0-.27s0-.18,0-.27v-.18c-.03-.24.04-.36.21-.36.08,0,.14.02.2.06s.11.1.15.18c-.02.41,0,.8.05,1.18s.12.75.2,1.12.14.74.21,1.12.1.77.1,1.17c0,.11-.03.22-.1.33s-.17.16-.3.16c-.1,0-.19-.09-.26-.26s-.14-.4-.19-.67-.1-.57-.14-.9-.07-.64-.09-.94-.03-.57-.04-.81-.01-.4-.01-.49Z"/><path class="cls-1" d="m18.87,6.08c0-.29.04-.59.11-.91s.19-.62.35-.89.36-.5.61-.67.55-.26.91-.26c.19,0,.38.03.56.08s.38.13.58.23.41.22.62.36.44.29.69.45c.03-.31.02-.63-.04-.97s-.12-.66-.21-.98-.17-.62-.26-.91-.15-.54-.19-.77-.04-.41-.01-.56.12-.24.28-.28c.21.16.39.38.54.66s.28.62.39.99.2.78.27,1.2.13.86.18,1.29.08.86.11,1.28.06.79.09,1.14.06.64.09.89.07.42.12.52c0,.12-.04.2-.13.23s-.18.05-.28.05c-.08,0-.14-.03-.2-.09s-.1-.13-.13-.21-.06-.17-.09-.26-.06-.19-.09-.27-.07-.15-.11-.21-.09-.08-.15-.08c-.02,0-.04,0-.06,0s-.04,0-.04.02c-.15.2-.32.4-.52.59s-.42.36-.66.5c-.24.15-.49.26-.75.35s-.53.13-.79.13c-.3,0-.56-.1-.78-.29-.22-.2-.41-.43-.56-.7s-.27-.56-.34-.87-.11-.57-.11-.8Zm.73.21c.08.28.15.53.21.74s.14.38.23.52.2.23.32.3.29.1.49.1c.25,0,.52-.07.8-.22s.54-.33.79-.56.44-.47.6-.74.23-.53.23-.78v-.28c-.41-.41-.79-.7-1.14-.87s-.66-.27-.93-.27-.51.06-.71.18-.37.29-.5.49-.23.43-.29.68-.09.49-.08.71Z"/><path class="cls-1" d="m25.16,6.76c0-.13.05-.29.12-.46s.18-.34.33-.5.34-.31.56-.44.49-.22.8-.28.66-.06,1.05-.01.83.16,1.32.35v-.22c-.01-.2-.07-.41-.19-.62s-.27-.4-.45-.57-.38-.3-.59-.41-.41-.16-.61-.16c-.08,0-.15.01-.21.04s-.12.05-.17.09-.11.07-.16.09-.11.04-.18.04c-.02,0-.02,0-.02-.01l-.02-.02s-.04-.04-.06-.06-.04-.04-.04-.05c0-.14.03-.26.08-.36s.12-.18.21-.25.19-.11.3-.15.23-.05.36-.05c.31.03.61.13.9.29s.55.36.79.6.45.52.63.84.33.64.45.98.2.68.24,1.03c.05.36.05.7.01,1.01,0,0-.03,0-.07,0s-.08,0-.13-.01-.09,0-.12-.02h-.06c-.16-.38-.35-.68-.55-.9s-.4-.4-.6-.53-.38-.22-.56-.27-.31-.09-.42-.11c-.12,0-.26,0-.42.02s-.33.04-.5.08-.35.09-.52.16-.33.15-.47.24-.25.21-.33.33-.12.28-.12.45c0,.19.07.35.22.47s.33.23.54.32.43.14.64.17.39.05.53.05c.22,0,.43-.01.64-.04s.42-.05.63-.08.41-.06.62-.08.41-.04.61-.04h.08s.08,0,.12,0,.08,0,.12,0h.08c.06.02.1.06.11.11s.01.09.01.14-.05.1-.15.15-.22.11-.38.16c-.16.06-.33.11-.52.17s-.38.11-.55.15-.34.07-.49.1-.26.04-.32.04c-.33,0-.68-.03-1.04-.08s-.7-.15-1.01-.3c-.3-.15-.56-.35-.76-.6s-.3-.59-.3-1Z"/><path class="cls-1" d="m32.02,7.95c0-.13.04-.28.12-.45s.18-.33.3-.49.24-.31.37-.46.23-.26.32-.36l-1.55-.05s-.06-.01-.08-.04-.03-.05-.04-.09-.01-.07-.01-.1v-.06c0-.07,0-.12.01-.16s.03-.06.06-.08.07-.03.12-.04h.16c.08,0,.21-.02.4-.05s.39-.05.61-.07.42-.04.62-.06.33-.04.4-.05c.11-.16.2-.29.27-.4s.13-.22.17-.32.07-.2.09-.3.03-.22.03-.36c0-.06,0-.14-.02-.22s-.04-.17-.07-.25-.08-.15-.14-.21-.13-.08-.23-.08h-1.46c-.09,0-.17.03-.24.09s-.14.13-.2.2-.12.13-.18.19c-.06.06-.12.09-.16.09-.13,0-.24-.04-.33-.11s-.13-.17-.13-.3c0-.12.04-.23.13-.32s.21-.16.36-.23.31-.12.48-.15.34-.06.52-.09.33-.04.47-.05.26-.02.33-.02c.22,0,.42.03.62.09s.35.15.49.28.24.27.32.44.12.37.12.6c0,.14-.02.27-.05.39s-.07.23-.11.35-.07.23-.11.35-.05.24-.05.38c0,0,.06,0,.15-.02s.19-.02.3-.02.21,0,.29.02.13.06.13.13v.08s-.06.09-.12.16-.09.11-.1.11l-1.25.12c-.06.11-.15.23-.27.36s-.23.26-.35.4-.22.27-.32.4-.15.25-.16.36.02.21.12.29.27.14.54.17c.17,0,.36-.02.56-.05s.4-.07.6-.13.4-.12.59-.19.36-.14.5-.22c.06.05.12.11.16.18s.07.14.07.22c0,.12-.05.22-.16.31s-.25.17-.42.24c-.17.07-.36.13-.57.19s-.42.1-.63.13-.4.05-.57.07-.31.02-.4.02c-.11,0-.24-.02-.4-.05s-.32-.08-.47-.13-.28-.14-.38-.24c-.1-.1-.15-.23-.15-.38Z"/><path class="cls-1" d="m36.75,5.6c0-.41.06-.79.18-1.17s.3-.7.53-.98.51-.51.84-.67.72-.25,1.15-.25c.26.03.48.1.67.21s.35.24.47.4.21.35.26.56c.05.2.07.42.07.66,0,.28-.08.54-.25.76s-.37.42-.62.57-.52.27-.81.35-.56.12-.81.12h-.29c-.1,0-.19-.02-.26-.05s-.14-.08-.19-.14-.07-.16-.07-.28c0-.04,0-.07.02-.1s.04-.05.1-.06.14-.01.25,0c.11.02.26.04.45.07.11,0,.27-.04.47-.11s.42-.17.63-.29.4-.25.56-.4.23-.3.23-.45c0-.16-.03-.31-.08-.46s-.13-.29-.23-.4-.22-.21-.36-.28-.29-.1-.46-.08c-.27.02-.52.1-.74.22s-.41.29-.57.49-.28.42-.36.66-.13.5-.13.76c0,.2,0,.41.01.61s.04.4.09.6.13.38.25.56.28.34.49.47.49.25.81.34.73.15,1.22.17l2.1-.14c-.12.17-.28.31-.47.42-.19.11-.39.2-.61.26s-.43.12-.64.15-.41.05-.6.05c-.45,0-.88-.07-1.28-.22s-.75-.36-1.05-.63-.54-.6-.72-.98-.26-.82-.26-1.31Z"/></g></g><path class="cls-2" d="m12.09,5.53s0-.1-.01-.15c-.01-.08-.03-.15-.05-.23-.05-.15-.11-.3-.18-.45-.06-.13-.15-.24-.25-.34-.06-.06-.12-.12-.18-.17-.08-.07-.17-.14-.27-.2-.15-.09-.32-.15-.5-.14h-.32c-.1.01-.19.04-.29.07-.14.05-.26.11-.38.19-.13.09-.25.19-.36.3-.11.1-.21.2-.3.32-.07.08-.13.17-.18.27-.04.08-.07.16-.07.24v.23c0,.06,0,.12.02.18,0,.03.02.07.02.1.01.08.04.15.08.22.06.11.15.21.25.29.14.11.29.19.45.26.11.05.23.09.34.13.09.03.18.04.27.05h.14c.08,0,.16,0,.24-.02.11-.02.22-.04.33-.09.09-.04.17-.08.26-.13.05-.03.1-.07.14-.11.11-.11.19-.24.25-.38.03-.07.05-.14.05-.22v-.24c0-.07-.02-.15-.04-.22-.04-.12-.08-.24-.14-.35-.07-.13-.16-.24-.28-.32-.07-.05-.14-.08-.22-.11-.14-.05-.28-.08-.43-.08h-.14s-.07,0-.11.01c-.12.03-.22.1-.31.18s-.16.18-.22.29c-.04.06-.07.12-.08.19,0,.04-.01.08-.01.12v.21c.02.1.04.21.08.31.03.08.07.16.14.22.06.06.13.09.21.09h.15c.06,0,.12-.02.18-.05.05-.02.1-.05.15-.08.04-.02.07-.05.1-.08.04-.04.06-.09.06-.15v-.15c-.01-.08-.04-.16-.08-.23-.05-.11-.14-.19-.23-.25-.04-.03-.08-.05-.13-.04-.05,0-.09.04-.09.09,0,.04.01.08.06.09,0,0,.02,0,.02.02.02.01.03.03.05.04.05.05.1.1.14.16.02.03.04.06.04.1v.15s0,.04-.02.06-.05.04-.08.05c-.06.02-.11.03-.17.03-.05,0-.09-.02-.13-.05-.06-.04-.09-.1-.11-.17-.03-.09-.05-.18-.04-.27v-.08c0-.05,0-.1.03-.15.06-.15.16-.27.3-.37.02-.01.04-.02.06-.02h.11c.05,0,.11,0,.16.02.11.03.22.06.33.12.12.06.21.16.28.27.04.07.07.15.1.22.02.06.04.12.04.18v.31c-.02.08-.05.15-.08.23-.02.03-.03.07-.06.1-.07.08-.15.15-.24.2-.08.04-.17.07-.26.09-.05.01-.09.02-.14.02h-.28c-.06,0-.12-.02-.18-.04-.12-.04-.24-.08-.35-.13-.13-.06-.25-.13-.36-.21-.08-.05-.15-.11-.2-.19-.03-.04-.06-.09-.08-.14-.03-.07-.03-.15-.04-.22v-.18c0-.07.01-.14.04-.2.04-.1.1-.18.16-.26.09-.11.18-.21.28-.3.09-.09.19-.17.3-.25.09-.06.18-.12.28-.15.13-.04.26-.07.4-.07h.13c.07,0,.14.02.21.04.13.05.24.12.35.21.1.08.19.17.29.26.08.08.14.17.19.27.05.11.1.22.14.34.04.11.06.22.06.33v.11c0,.08,0,.17-.03.25-.02.08-.04.16-.06.23-.01.06-.03.12-.05.19-.03.07-.06.14-.11.19-.03.04-.06.08-.1.11-.09.09-.18.18-.29.25-.09.06-.19.1-.29.13-.09.03-.18.04-.27.04h-.22c-.07,0-.15-.01-.22-.03-.11-.02-.22-.04-.34-.05h-.28s-.07.01-.1.02c-.04,0-.06.03-.06.07v.07s.02.04.04.05c.06.02.12.03.18.04.12.02.25.05.37.07.06.01.13.02.19.03.07,0,.15.01.22,0,.09,0,.19,0,.28-.01.12-.01.24-.04.36-.09.07-.03.14-.07.2-.1.11-.06.22-.13.31-.22.08-.08.16-.16.23-.25.09-.11.15-.23.18-.36.02-.09.04-.18.07-.26.04-.13.05-.27.05-.41v-.1h-.05Z"/><path class="cls-2" d="m9,7.29s-.04-.03-.06-.02c-.03.01-.06.03-.08.05l-.02.02c-.09.08-.18.17-.27.25l-.11.11s-.02.02-.02.03c-.02.03-.03.05-.06.07,0,0-.01.02-.01.03v.02s.03.04.05.06c.01,0,.02.02.03.03.02.02.04.02.06,0,.03-.02.05-.05.08-.07.13-.12.25-.25.36-.39.02-.03.05-.06.07-.09.01-.02.01-.04,0-.05,0-.02-.02-.03-.03-.05h.01Z"/><path class="cls-2" d="m10.97,7.82s0-.08-.02-.12c-.01-.02,0-.02-.03-.02-.04,0-.09.01-.13.02t-.03.03v.32h0v.17c0,.05,0,.1.02.15,0,0,0,.01.02.01.04-.01.09-.02.13-.02s.03,0,.04-.04v-.15c0-.12,0-.24,0-.35Z"/><path class="cls-2" d="m13.38,5.51s-.03-.07-.04-.1c0,0,0-.01-.02-.01-.04,0-.08,0-.12.02-.05.01-.09.03-.14.03-.08.01-.15.02-.23.04-.05.01-.11.03-.16.05-.01,0-.02.01-.02.03v.11s0,.02.02.02h.07c.06,0,.11-.01.17-.02.08,0,.15-.02.23-.04s.15-.06.23-.1c.02,0,.02-.02.01-.04h0Z"/><path class="cls-2" d="m8.3,3.92c.06.05.13.09.2.13.05.03.1.05.15.08.05.03.09.05.14.07.02.01.03,0,.04-.01.02-.03.03-.06.06-.09v-.02s0-.02-.02-.03c-.07-.05-.15-.1-.22-.15-.09-.06-.19-.12-.28-.18-.01,0-.02-.01-.03-.02h-.04s-.02.03-.04.04c-.02.02-.03.04-.04.07,0,.02,0,.04.01.05.02.02.04.04.06.05h0Z"/><path class="cls-2" d="m12.57,3.82s.05-.04.06-.06h0s-.03-.08-.05-.11c0,0-.01-.01-.02-.01-.04,0-.08,0-.12.03-.1.06-.19.12-.29.18-.06.04-.12.08-.16.14,0,0-.01.02,0,.03.02.04.04.08.06.12t.04.01c.05-.02.08-.06.13-.08.02-.01.04-.03.07-.05.09-.06.19-.12.28-.18v-.02Z"/><path class="cls-2" d="m10.35,3.16s0,.06.01.08t.04.03h.11s.02,0,.01-.02v-.4c.01-.09.03-.18.06-.26v-.02s0-.02-.01-.02c-.04,0-.08-.02-.13-.03h-.03s-.01.02-.02.03c0,.02-.02.04-.02.06-.04.14-.06.27-.05.43v.11h.03Z"/><path class="cls-2" d="m12.75,7.45c-.03-.05-.07-.1-.11-.15-.07-.09-.17-.17-.25-.26h-.02s-.07.07-.11.11c-.01.01,0,.02,0,.03s.02.03.03.04c.03.03.05.06.08.09.05.06.11.12.15.18.03.04.06.07.09.11.01.01.02.01.04,0,.01,0,.03-.01.04-.02.02-.01.04-.02.06-.03.01,0,.02-.02.02-.04h0s-.01-.05-.02-.07h0Z"/><path class="cls-2" d="m8.24,5.75s.08-.02.13-.03h.02s.02-.01,0-.03c-.01-.03-.02-.05-.03-.08,0-.02-.01-.02-.03-.02h-.1s-.07,0-.1.02c-.05.02-.11.04-.16.05s-.09.02-.14.03-.09.03-.13.05c-.01,0-.02.02-.01.04,0,.02,0,.05.01.07,0,.01.02.02.04.03.03.01.04,0,.07,0,.12-.02.23-.05.34-.1.03-.01.06-.02.09-.03Z"/><path class="cls-2" d="m11.44,3.49h.02s.05.03.08.04h.05s.02-.01.03-.02c.02-.02.04-.04.05-.06.02-.02.03-.04.04-.06,0-.01.01-.02.02-.03.04-.04.07-.08.1-.13.01-.02.02-.04.02-.07,0-.02,0-.03-.03-.04-.02,0-.04-.02-.06-.03h-.02s-.05.02-.07.04c-.05.05-.09.1-.13.14-.02.02-.03.04-.05.07,0,.02-.02.03-.03.05-.01.01-.02.03-.03.04-.01.02,0,.04.01.05h0Z"/><path class="cls-2" d="m12.4,4.64s-.02,0-.02.01c0,0-.02.02-.03.02t-.01.03c.02.05.03.09.05.14.01.03.02.04.03.02,0-.03.03,0,.05-.01.1-.05.19-.11.28-.16.02-.01.02-.02.02-.04-.01-.05-.02-.09-.03-.14t-.04-.02s-.01,0-.02.01c-.02.01-.05.03-.07.04-.06.04-.13.08-.19.11h-.02Z"/><path class="cls-2" d="m9.33,3.22c.03.12.09.23.18.32,0,0,.02.01.03,0,.04-.03.07-.05.11-.08.03-.02.03-.03,0-.03-.04,0-.04-.09-.07-.14-.03-.04-.05-.09-.07-.13-.02-.03-.04-.06-.08-.08,0,0-.01,0-.02,0h-.01s-.06.04-.08.06c0,0-.01,0,0,.02,0,.02.01.04.02.06h-.01Z"/><path class="cls-2" d="m9.93,7.72s-.06-.01-.08-.02c-.02,0-.04,0-.04.02,0,.03-.02.06-.03.09-.02.09-.06.18-.09.27,0,.03,0,.04.02.05.03.01.05.02.08.03.03,0,.04,0,.05-.03,0-.01,0-.03.01-.04.04-.08.06-.16.08-.25,0-.03.01-.06.02-.09t-.03-.04h0Z"/><path class="cls-2" d="m7.97,4.73s0,.03.04.04h.41s.02,0,.02-.03v-.07s0-.02-.01-.02-.03-.01-.05-.02c-.07-.01-.13-.02-.2-.01h-.09s-.06,0-.1.02c-.02.01-.03.01-.02.04v.06h0Z"/><path class="cls-2" d="m11.92,7.63s-.01-.02-.03,0c-.03.02-.07.04-.1.06-.03.01-.03.02-.02.04.03.07.07.14.1.2,0,.02.02.03.03.05.01.02.02.02.04.01.03-.01.05-.03.08-.04.01,0,.02,0,.03-.02,0,0,.01-.01.01-.02,0-.02,0-.04-.02-.06-.03-.08-.08-.15-.12-.23h0Z"/><path class="cls-2" d="m8.52,6.6s.01,0,.02-.01v-.02s-.02-.03-.03-.05c0,0-.01-.01-.02-.01h-.05c-.05,0-.1.03-.15.06-.05.03-.09.06-.14.09-.02.01-.04.03-.06.06,0,.01-.01.02,0,.04s.02.03.03.04c.01.02.02.02.04.01,0,0,.02,0,.02-.01.07-.02.12-.05.18-.09.05-.03.1-.07.15-.09v-.02Z"/><path class="cls-2" d="m12.99,6.45c-.05-.06-.12-.11-.19-.14-.02-.01-.05,0-.06.02-.02.03-.03.06-.05.09-.01.02-.01.03.01.05.05.03.1.07.15.11.01.01.03.02.04.02h.02s.05-.06.07-.08t0-.04h0v-.03Z"/><path class="cls-2" d="m43.08,4.71v-.11s0-.02-.02-.02c-.05-.02-.09-.03-.15-.04-.06,0-.11-.02-.17-.03-.09-.02-.18-.05-.28-.07-.06-.01-.13-.02-.19-.02-.02,0-.03,0-.03.02s0,.03-.02.05l-.02.05s0,.02,0,.03c.02.01.05.02.07.03.07.02.13.04.2.06.09.03.18.05.27.06.1.02.2.01.29.01.02,0,.03,0,.03-.03h0Z"/><path class="cls-2" d="m37.89.99c.06.07.12.14.18.21.05.05.1.09.14.14.04.04.09.09.13.13.02.02.03.02.05,0,.03-.02.06-.04.1-.05,0,0,0,0,0-.02v-.04c-.06-.08-.13-.16-.19-.24-.08-.1-.17-.2-.26-.29,0,0-.02-.02-.03-.03-.02,0-.03-.02-.05,0-.02,0-.04.02-.06.02-.03,0-.05.03-.07.04s-.02.03,0,.05c.02.03.03.05.05.08Z"/><path class="cls-2" d="m42.77,2.77s.07,0,.09-.03c0,0,0,0,0,0h0s0-.08-.02-.12c0,0,0-.02-.02-.02-.05-.02-.09-.03-.14-.02-.13,0-.26.03-.39.05-.08,0-.16.02-.23.06,0,0-.02,0-.02.02,0,.05.02.09.03.14t.04.03c.06,0,.12-.02.17-.02.03,0,.06,0,.09-.02.13-.02.25-.03.38-.05h.01Z"/><path class="cls-2" d="m40.49,1.18s0,.05-.02.08t.03.04h.03s.07.03.11.04t.02,0v-.02s.03-.06.04-.09c.04-.09.06-.18.11-.26s.1-.15.17-.21h0s0-.02,0-.04c-.04-.03-.09-.06-.13-.08h-.04s-.02,0-.03.02c-.02,0-.03.03-.05.05-.09.11-.17.23-.22.38,0,.02-.03.06-.04.11h.01Z"/><path class="cls-2" d="m41.6,1.96s0,0,.02.02c.02.02.05.05.07.07s.03.02.05.02h.04s.05-.02.08-.03c.02,0,.05-.02.07-.04,0,0,.02,0,.03-.02.06-.02.11-.04.16-.07.02,0,.04-.03.05-.05,0-.02,0-.03-.02-.05s-.04-.03-.05-.05c0,0-.02,0-.03,0h-.1c-.07.02-.13.05-.2.08-.03,0-.05.02-.08.04,0,0-.03.02-.05.03-.02,0-.03.02-.05.03s-.02.03,0,.05v-.02Z"/><path class="cls-2" d="m42.28,3.46h-.07s-.02,0-.02.02v.15s0,.04.03.03c.03-.02.04,0,.06,0,.13,0,.26-.02.38-.03t.03-.03c0-.05,0-.1,0-.14t-.04-.04h-.12c-.09,0-.17.02-.26.02v.02Z"/><path class="cls-2" d="m39.31.79c0,.13.02.25.09.37,0,0,0,.02.03,0,.05,0,.1,0,.15-.02.03,0,.04-.01.02-.02,0-.05,0-.1-.03-.16-.02-.05-.02-.1-.03-.15,0-.04-.03-.08-.06-.11,0,0,0,0-.02-.02h-.02s-.08,0-.12.02c0,0-.02,0-.02.02v.06h0Z"/><path class="cls-2" d="m37.21,1.61s0,.03.03.05c.08.03.16.06.24.09.05.02.09.03.13.05.03,0,.06.02.09.03.02,0,.03,0,.03,0,0-.02,0-.04.02-.06v-.03s-.03-.03-.05-.04c-.07-.04-.14-.07-.22-.1-.03,0-.07-.03-.1-.04-.04,0-.08-.03-.11-.03s-.03,0-.04.03c0,.02,0,.04,0,.06h-.01Z"/><path class="cls-2" d="m42.3,5.41c-.04-.08-.09-.15-.16-.22-.02-.02-.05-.02-.08,0-.03.02-.06.04-.09.06-.02.01-.02.03,0,.05.05.05.09.11.13.17,0,.01.02.03.04.03h.03s.08-.03.11-.05c.03-.01.02-.01.02-.04h0Z"/></g></g></svg>